<?xml version="1.0" encoding="UTF-8" standalone="no"?>
<svg
    xmlns="http://www.w3.org/2000/svg"
    xmlns:xlink="http://www.w3.org/1999/xlink"
    version="1.1"
    width="100%"
    height="100%">

  <defs>
    <path
        id="o-semicircle"
        d="m 2132.891,287.69187 0.601,-10.25238 c 1.1018,-16.52327 1.3022,-18.51398 4.9087,-36.53029 5.1087,-25.97936 17.9311,-57.33366 32.8571,-80.6255 1.9034,-2.98614 3.7066,-5.67361 4.1072,-5.97229 0.3005,-0.2986 1.3022,-1.89118 2.2039,-3.68288 0.9017,-1.69211 2.2038,-3.68288 3.0052,-4.47917 0.7013,-0.69676 2.6045,-3.08568 4.2073,-5.17592 12.7222,-16.8219 35.5621,-38.32202 54.5953,-51.560545 13.123,-9.157425 31.9558,-19.509335 44.5776,-24.685341 1.102,-0.398134 3.6063,-1.493022 5.71,-2.388843 5.6098,-2.488459 27.0472,-9.456109 31.9557,-10.451463 2.4042,-0.497667 8.0141,-1.592639 12.4218,-2.48846 19.5341,-3.881968 24.3424,-4.379635 47.5828,-4.479169 18.7328,0 25.8452,0.298601 35.0614,1.791643 40.3704,6.669028 68.1187,16.722337 98.8717,35.933071 22.24,13.935278 46.1806,34.937717 61.4072,54.148537 4.4086,5.47452 8.4145,10.55091 8.9155,11.14819 1.0019,1.19443 6.0114,8.85883 7.6142,11.54636 0.5008,0.99535 2.8042,4.77776 5.1092,8.46067 14.6259,24.18765 25.9445,55.24342 30.4531,83.91024 2.1036,13.53714 3.004,22.19688 3.004,28.86591 l 0,6.96763 -68.0176,0 -68.0189,0 -0.5009,-2.28937 c -0.3005,-1.19445 -0.9017,-4.87733 -1.2021,-8.16207 -0.7013,-5.47461 -1.5027,-9.35658 -4.5077,-19.90756 -1.4027,-4.97685 -11.6204,-25.58116 -13.9245,-27.97008 -0.9015,-1.09489 -3.1053,-3.88197 -4.8083,-6.37035 -5.109,-7.36578 -19.434,-20.20617 -28.3496,-25.68078 -34.2597,-20.50469 -75.6318,-22.59501 -110.4926,-5.57405 -21.3373,10.45144 -40.2703,29.16451 -51.0892,50.66463 -3.9068,7.66438 -9.5166,23.88906 -10.2178,29.36358 -1.102,8.85889 -1.7029,12.54177 -2.2038,14.13434 -0.4008,1.69217 -4.5078,1.79171 -68.1188,1.79171 l -67.7181,0 z"
          />
  </defs>

  <path
      id="text"
      d="m 1264.6765,285.7011 46.8817,0 c 50.6885,0 57.1998,-0.49769 73.5284,-5.57408 37.5653,-11.74548 61.6073,-39.41689 67.4175,-77.83844 7.9139,-51.75959 -16.2283,-93.06767 -61.8078,-105.708969 -16.9295,-4.678257 -22.8398,-5.175924 -75.6319,-5.673611 l -50.3879,-0.597201 0,97.745901 0,97.6464 z m -32.0559,232.91804 0,-229.03608 0,-229.036075 71.9255,0.497688 c 61.1066,0.398133 73.3279,0.696754 82.1433,2.090326 14.0244,2.289393 25.9452,5.87274 36.8642,10.94913 12.9226,6.171341 20.6361,11.546351 30.954,21.89826 13.3232,13.338061 20.9366,25.581161 26.4463,42.900721 4.6078,14.33341 5.6097,21.99779 5.5095,42.80119 0,20.60428 -1.7031,31.85203 -7.0122,46.48406 -10.218,28.26869 -31.3549,51.56053 -59.4037,65.49572 -7.3128,3.58337 -27.6482,10.551 -33.8592,11.54643 -2.4042,0.39814 -4.3073,0.89582 -4.3073,1.29396 0,0.2986 2.1036,1.69217 4.8084,3.08568 11.3197,5.87274 27.6481,26.37745 39.4687,49.27113 4.3076,8.36113 57.8009,123.92431 71.5247,154.48234 l 2.4043,5.27552 -18.332,0 -18.2319,0 -31.054,-68.88003 c -17.0297,-37.9238 -33.258,-73.55828 -36.1632,-79.13242 -15.3266,-29.76171 -30.2527,-44.79195 -50.8886,-50.96323 -9.5167,-2.88662 -25.3443,-4.08104 -55.3966,-4.08104 l -25.3443,0 0,101.52834 0,101.52838 -16.028,0 -16.0279,0 z m -353.6168,0 0,-228.93654 0,-228.936527 106.18516,0 106.18524,0 0,14.930632 0,14.930694 -90.1573,0 -90.15721,0 0,91.076901 0,91.07696 83.64584,0 83.64597,0 0,14.93061 0,14.93063 -83.64597,0 -83.64584,0 0,93.56536 0,93.56531 95.16591,0 95.166,0 0,14.43297 0,14.433 -111.19385,0 -111.19395,0 z m -468.81793,0 0,-228.93654 0,-228.936527 16.02808,0 16.02808,0 0,104.514547 0,104.51449 128.72429,0 128.72457,0 0,-104.51449 0,-104.514547 16.02809,0 16.0278,0 0,228.936527 0,228.93654 -16.0278,0 -16.02809,0 0,-109.49136 0,-109.49141 -128.72457,0 -128.72429,0 0,109.49141 0,109.49136 -16.02808,0 -16.02808,0 z m -269.46977,0 0,-214.00585 0,-214.005891 -65.113694,0 -65.113544,0 0,-14.930694 0,-14.930632 145.754328,0 145.75404,0 0,14.930632 0,14.930694 -65.11343,0 -65.11353,0 0,214.005891 0,214.00585 -15.52708,0 -15.52709,0 z m 1700.4661,0.0994 -5.9104,-0.29866 -5.8102,-0.29862 -82.0431,-178.17231 c -80.7408,-175.48481 -83.5456,-182.05431 -92.8619,-211.51744 l -1.102,-3.48381 0.6011,3.48381 c 0.3006,1.89126 0.8014,90.47976 1.0017,196.78589 l 0.4007,193.40161 -16.128,0 -16.0281,0 0,-228.93655 0,-229.036054 15.1264,0.2986 15.0262,0.2986 84.6478,185.140004 c 54.2947,118.74843 87.0517,191.70948 91.4594,203.35536 l 6.8119,18.21538 7.2127,-20.50471 c 5.9101,-16.42373 23.7412,-56.73644 90.2573,-203.35536 l 82.8444,-182.850674 14.2251,-0.2986 14.1244,-0.2986 0,229.036054 0,228.93655 -15.0262,0 -15.0262,0 0,-172.00104 c 0,-155.07956 0.3007,-181.85523 2.5045,-212.21416 l 0.5007,-7.46532 -3.9066,9.95378 c -6.3113,16.12505 -8.2144,20.30562 -92.4614,205.147 l -80.4402,176.67927 z m 956.4505,7.70423 c -14.2752,-0.0372 -30.2094,-0.86106 -37.8482,-2.22968 -23.14,-4.18057 -44.9788,-10.45147 -59.6047,-17.12049 l -8.0134,-3.68288 0,-18.71307 c 0,-10.35189 0.1998,-18.81256 0.4012,-18.81256 0.1996,0 3.5049,1.89118 7.2129,4.18057 18.0309,10.8496 39.0674,19.31024 59.603,23.88903 9.3166,2.09024 12.8233,2.28931 33.9596,2.28931 26.4455,-0.0994 36.2632,-1.49304 53.2919,-7.86345 12.7236,-4.77775 19.2342,-8.95832 29.4529,-19.11118 7.6125,-7.46529 9.9175,-10.45144 13.2228,-17.41909 6.712,-13.93526 7.7139,-18.71305 7.7139,-39.21782 0,-20.60431 -1.5029,-27.87055 -8.6159,-41.40768 -9.6162,-18.41444 -33.0577,-36.82889 -90.0578,-71.06987 -79.4379,-47.67849 -101.1749,-73.95641 -102.8792,-124.52157 -0.6007,-17.12041 0.501,-27.47234 4.4087,-39.71551 11.5202,-36.132139 44.0769,-65.993403 83.645,-76.5444 5.1096,-1.393571 12.221,-2.986147 15.8274,-3.682881 15.0269,-2.687547 48.4856,-2.687547 66.6164,0.09945 11.7215,1.692109 24.643,4.678236 36.3645,8.162071 l 10.2169,3.085659 0,17.319559 c 0,9.456025 -0.1996,17.220022 -0.5008,17.220022 -0.2996,0 -2.3034,-0.89588 -4.3072,-1.891236 -6.812,-3.483835 -27.6487,-9.953776 -40.7717,-12.740793 -12.2207,-2.587993 -14.5241,-2.687527 -38.0653,-2.687527 -24.0422,0 -25.4453,0.09945 -34.9616,2.687527 -43.1747,11.645884 -67.9177,44.095159 -65.4147,85.701909 1.2034,19.60887 6.8119,35.13672 17.2303,47.67849 10.4184,12.5417 36.3647,31.25483 76.1326,54.94474 36.4644,21.79874 47.1823,28.96544 64.9137,43.498 21.8388,17.91678 34.4607,36.53029 40.9713,60.31973 2.6045,9.65517 3.6065,36.92851 1.8042,49.17161 -5.0097,34.0419 -24.3436,62.60917 -54.5952,80.22732 -14.2263,8.26161 -35.2629,14.73157 -55.5969,17.12041 -5.2233,0.59729 -13.1913,0.85832 -21.7566,0.8362 z" />

  <g id="o-circle">
    <use fill="rgb(237,48,39)" id="o-circle-top" xlink:href="#o-semicircle"/>
    <use fill="rgb(0,172,230)" id="o-circle-bottom" transform="rotate(180,2382.5,293)" xlink:href="#o-semicircle"/>
 </g>
</svg>
