<?xml version="1.0" standalone="no"?><!DOCTYPE svg PUBLIC "-//W3C//DTD SVG 1.1//EN" "http://www.w3.org/Graphics/SVG/1.1/DTD/svg11.dtd" ><svg xmlns="http://www.w3.org/2000/svg"><metadata>Generated by Glyphter</metadata><defs><font id="steep" horiz-adv-x="0"><font-face units-per-em="1024" ascent="1024" descent="0" font-family="steep" font-weight="normal" /><missing-glyph horiz-adv-x="0" /><glyph unicode="&#x0041;" d="M859.934,964.768C905.193,964.768,961.768,908.193,961.768,862.934C961.768,862.934,961.768,155.751,961.768,155.751C961.768,110.492,905.193,53.917,859.934,53.917C859.934,53.917,158.409,53.917,158.409,53.917C113.149,59.575,56.575,116.149,56.575,161.409C56.575,161.409,56.575,862.934,56.575,862.934C56.575,908.193,113.149,964.768,158.409,964.768C158.409,964.768,848.619,964.768,848.619,964.768M859.934,1021.343C859.934,1021.343,158.409,1021.343,158.409,1021.343C67.89,1021.343,0,953.453,0,862.934C0,862.934,0,155.751,0,155.751C0,70.89,67.89,3,158.409,3C158.409,3,865.591,3,865.591,3C950.453,3,1024,70.89,1024,161.409C1024,161.409,1024,862.934,1024,862.934C1018.343,953.453,950.453,1021.343,859.934,1021.343C859.934,1021.343,859.934,1021.343,859.934,1021.343C859.934,1021.343,859.934,1021.343,859.934,1021.343M509.171,823.331C554.431,823.331,588.376,789.387,588.376,744.127C588.376,698.867,554.431,664.923,509.171,664.923C463.912,664.923,429.967,698.867,429.967,744.127C429.967,789.387,463.912,823.331,509.171,823.331C509.171,823.331,509.171,823.331,509.171,823.331M667.58,223.641C667.58,206.669,661.923,195.354,639.293,195.354C639.293,195.354,379.05,195.354,379.05,195.354C362.077,195.354,350.762,201.011,350.762,223.641C350.762,223.641,350.762,274.558,350.762,274.558C350.762,291.53,356.42,302.845,379.05,302.845C379.05,302.845,429.967,302.845,429.967,302.845C429.967,302.845,429.967,523.486,429.967,523.486C429.967,523.486,373.392,523.486,373.392,523.486C356.42,523.486,345.105,529.144,345.105,551.773C345.105,551.773,345.105,602.691,345.105,602.691C345.105,619.663,350.762,630.978,373.392,630.978C373.392,630.978,560.088,630.978,560.088,630.978C577.061,630.978,588.376,625.32,588.376,602.691C588.376,602.691,588.376,302.845,588.376,302.845C588.376,302.845,639.293,302.845,639.293,302.845C656.265,302.845,667.58,297.188,667.58,274.558C667.58,274.558,667.58,223.641,667.58,223.641C667.58,223.641,667.58,223.641,667.58,223.641" class="icon-about"/><glyph unicode="&#x0042;" d="M1024,866.462C1024,953.108,953.108,1024,866.462,1024C866.462,1024,157.538,1024,157.538,1024C70.892,1024,0,953.108,0,866.462C0,866.462,0,157.538,0,157.538C0,70.892,70.892,0,157.538,0C157.538,0,866.462,0,866.462,0C953.108,0,1024,70.892,1024,157.538C1024,157.538,1024,866.462,1024,866.462C1024,866.462,1024,866.462,1024,866.462M945.231,157.538C945.231,114.215,909.785,78.769,866.462,78.769C866.462,78.769,157.538,78.769,157.538,78.769C114.215,78.769,78.769,114.215,78.769,157.538C78.769,157.538,78.769,866.462,78.769,866.462C78.769,909.785,114.215,945.231,157.538,945.231C157.538,945.231,866.462,945.231,866.462,945.231C909.785,945.231,945.231,909.785,945.231,866.462C945.231,866.462,945.231,157.538,945.231,157.538C945.231,157.538,945.231,157.538,945.231,157.538M551.385,787.692C551.385,787.692,472.615,787.692,472.615,787.692C472.615,787.692,472.615,551.385,472.615,551.385C472.615,551.385,236.308,551.385,236.308,551.385C236.308,551.385,236.308,472.615,236.308,472.615C236.308,472.615,472.615,472.615,472.615,472.615C472.615,472.615,472.615,236.308,472.615,236.308C472.615,236.308,551.385,236.308,551.385,236.308C551.385,236.308,551.385,472.615,551.385,472.615C551.385,472.615,787.692,472.615,787.692,472.615C787.692,472.615,787.692,551.385,787.692,551.385C787.692,551.385,551.385,551.385,551.385,551.385C551.385,551.385,551.385,787.692,551.385,787.692" class="icon-addasset"/><glyph unicode="&#x0043;" d="M512,0M512,0M540.444,0C540.444,0,540.444,0,540.444,0C540.444,0,483.556,0,483.556,0C483.556,0,483.556,0,483.556,0C483.556,0,540.444,0,540.444,0M1024,796.444C1024,796.444,796.444,796.444,796.444,796.444C796.444,796.444,796.444,967.111,796.444,967.111C796.444,1001.244,796.444,1024,796.444,1024C796.444,1024,0,1024,0,1024C0,1024,0,227.556,0,227.556C0,227.556,227.556,227.556,227.556,227.556C227.556,227.556,227.556,0,227.556,0C227.556,0,1024,0,1024,0C1024,0,1024,796.444,1024,796.444C1024,796.444,1024,796.444,1024,796.444M113.778,341.333C113.778,341.333,113.778,910.222,113.778,910.222C113.778,910.222,682.667,910.222,682.667,910.222C682.667,910.222,682.667,796.444,682.667,796.444C682.667,796.444,682.667,682.667,682.667,682.667C682.667,682.667,682.667,341.333,682.667,341.333C682.667,341.333,341.333,341.333,341.333,341.333C341.333,341.333,227.556,341.333,227.556,341.333C227.556,341.333,113.778,341.333,113.778,341.333C113.778,341.333,113.778,341.333,113.778,341.333M910.222,113.778C910.222,113.778,341.333,113.778,341.333,113.778C341.333,113.778,341.333,227.556,341.333,227.556C341.333,227.556,762.311,227.556,762.311,227.556C790.756,227.556,796.444,227.556,796.444,261.689C796.444,261.689,796.444,682.667,796.444,682.667C796.444,682.667,910.222,682.667,910.222,682.667C910.222,682.667,910.222,113.778,910.222,113.778C910.222,113.778,910.222,113.778,910.222,113.778" class="icon-addassetsmall"/><glyph unicode="&#x0044;" d="M512,23.5M512,23.5M550.788,23.5C550.788,23.5,550.788,23.5,550.788,23.5C550.788,23.5,473.212,23.5,473.212,23.5C473.212,23.5,473.212,23.5,473.212,23.5C473.212,23.5,550.788,23.5,550.788,23.5M512,791.5C512,791.5,930.909,442.409,930.909,442.409C930.909,442.409,1024,566.53,1024,566.53C1024,566.53,512,1000.955,512,1000.955C512,1000.955,0,566.53,0,566.53C0,566.53,93.091,442.409,93.091,442.409C93.091,442.409,512,791.5,512,791.5" class="icon-arrow"/><glyph unicode="&#x0045;" d="M512,28.5M512,28.5M540.444,28.5C540.444,28.5,540.444,28.5,540.444,28.5C540.444,28.5,483.556,28.5,483.556,28.5C483.556,28.5,483.556,28.5,483.556,28.5C483.556,28.5,540.444,28.5,540.444,28.5M967.111,938.722C967.111,938.722,967.111,142.278,967.111,142.278C967.111,142.278,56.889,142.278,56.889,142.278C56.889,142.278,56.889,938.722,56.889,938.722C56.889,938.722,967.111,938.722,967.111,938.722M1024,995.611C1024,995.611,0,995.611,0,995.611C0,995.611,0,85.389,0,85.389C0,85.389,1024,85.389,1024,85.389C1024,85.389,1024,995.611,1024,995.611C1024,995.611,1024,995.611,1024,995.611C1024,995.611,1024,995.611,1024,995.611M227.556,597.389C227.556,597.389,227.556,256.056,227.556,256.056C227.556,256.056,341.333,256.056,341.333,256.056C341.333,256.056,341.333,597.389,341.333,597.389C341.333,597.389,227.556,597.389,227.556,597.389M455.111,824.944C455.111,824.944,455.111,256.056,455.111,256.056C455.111,256.056,568.889,256.056,568.889,256.056C568.889,256.056,568.889,824.944,568.889,824.944C568.889,824.944,455.111,824.944,455.111,824.944M682.667,711.167C682.667,711.167,682.667,256.056,682.667,256.056C682.667,256.056,796.444,256.056,796.444,256.056C796.444,256.056,796.444,711.167,796.444,711.167C796.444,711.167,682.667,711.167,682.667,711.167" class="icon-assetdata"/><glyph unicode="&#x0046;" d="M512.111,0M512.111,0M540.556,0C540.556,0,540.556,0,540.556,0C540.556,0,483.667,0,483.667,0C483.667,0,483.667,0,483.667,0C483.667,0,540.556,0,540.556,0M739.667,853.333C739.667,853.333,739.667,170.667,739.667,170.667C739.667,170.667,967.222,170.667,967.222,170.667C967.222,170.667,967.222,853.333,967.222,853.333C967.222,853.333,739.667,853.333,739.667,853.333M57,853.333C57,853.333,57,170.667,57,170.667C57,170.667,694.156,0,694.156,0C694.156,0,694.156,1024,694.156,1024C694.156,1024,57,853.333,57,853.333C57,853.333,57,853.333,57,853.333M438.156,347.022C438.156,347.022,369.889,494.933,369.889,494.933C369.889,494.933,301.622,347.022,301.622,347.022C301.622,347.022,204.911,347.022,204.911,347.022C204.911,347.022,313,557.511,313,557.511C313,557.511,216.289,739.556,216.289,739.556C216.289,739.556,318.689,739.556,318.689,739.556C318.689,739.556,375.578,614.4,375.578,614.4C375.578,614.4,432.467,739.556,432.467,739.556C432.467,739.556,529.178,739.556,529.178,739.556C529.178,739.556,426.778,557.511,426.778,557.511C426.778,557.511,540.556,347.022,540.556,347.022C540.556,347.022,438.156,347.022,438.156,347.022C438.156,347.022,438.156,347.022,438.156,347.022" class="icon-assetexcel"/><glyph unicode="&#x0047;" d="M512,57M512,57M540.444,57C540.444,57,540.444,57,540.444,57C540.444,57,483.556,57,483.556,57C483.556,57,483.556,57,483.556,57C483.556,57,540.444,57,540.444,57M910.222,967.222C910.222,967.222,113.778,967.222,113.778,967.222C113.778,967.222,0,967.222,0,967.222C0,967.222,0,853.444,0,853.444C0,853.444,0,284.556,0,284.556C0,284.556,0,170.778,0,170.778C0,170.778,113.778,170.778,113.778,170.778C113.778,170.778,910.222,170.778,910.222,170.778C910.222,170.778,1024,170.778,1024,170.778C1024,170.778,1024,284.556,1024,284.556C1024,284.556,1024,853.444,1024,853.444C1024,853.444,1024,967.222,1024,967.222C1024,967.222,910.222,967.222,910.222,967.222C910.222,967.222,910.222,967.222,910.222,967.222M113.778,227.667C79.644,227.667,56.889,250.422,56.889,284.556C56.889,284.556,56.889,853.444,56.889,853.444C56.889,887.578,79.644,910.333,113.778,910.333C113.778,910.333,910.222,910.333,910.222,910.333C944.356,910.333,967.111,887.578,967.111,853.444C967.111,853.444,967.111,284.556,967.111,284.556C967.111,250.422,944.356,227.667,910.222,227.667C910.222,227.667,113.778,227.667,113.778,227.667C113.778,227.667,113.778,227.667,113.778,227.667M625.778,739.667C625.778,739.667,409.6,392.644,409.6,392.644C409.6,392.644,290.133,506.422,290.133,506.422C290.133,506.422,113.778,278.867,113.778,278.867C113.778,278.867,341.333,278.867,341.333,278.867C341.333,278.867,523.378,278.867,523.378,278.867C523.378,278.867,910.222,278.867,910.222,278.867C910.222,278.867,625.778,739.667,625.778,739.667M170.667,711.222C170.667,645.516,241.778,604.499,298.667,637.324C325.063,652.57,341.333,680.73,341.333,711.222C341.333,776.929,270.222,817.946,213.333,785.121C186.937,769.875,170.667,741.715,170.667,711.222" class="icon-assetimage"/><glyph unicode="&#x0048;" d="M512,967.111C762.311,967.111,967.111,762.311,967.111,512C967.111,261.689,762.311,56.889,512,56.889C261.689,56.889,56.889,261.689,56.889,512C56.889,762.311,261.689,967.111,512,967.111M512,1024C227.556,1024,0,796.444,0,512C0,227.556,227.556,0,512,0C796.444,0,1024,227.556,1024,512C1024,796.444,796.444,1024,512,1024C512,1024,512,1024,512,1024M512,967.111C614.4,967.111,728.178,779.378,728.178,512C728.178,244.622,614.4,56.889,512,56.889C409.6,56.889,295.822,244.622,295.822,512C295.822,779.378,409.6,967.111,512,967.111M512,1024C358.4,1024,238.933,796.444,238.933,512C238.933,227.556,364.089,0,512,0C659.911,0,785.067,227.556,785.067,512C785.067,796.444,665.6,1024,512,1024C512,1024,512,1024,512,1024M483.556,1024C483.556,1024,540.444,1024,540.444,1024C540.444,1024,540.444,0,540.444,0C540.444,0,483.556,0,483.556,0C483.556,0,483.556,1024,483.556,1024M0,540.444C0,540.444,1024,540.444,1024,540.444C1024,540.444,1024,483.556,1024,483.556C1024,483.556,0,483.556,0,483.556C0,483.556,0,540.444,0,540.444M955.733,722.489C955.733,722.489,79.644,722.489,79.644,722.489C79.644,722.489,79.644,779.378,79.644,779.378C79.644,779.378,932.978,779.378,932.978,779.378M79.644,307.2C79.644,307.2,950.044,307.2,950.044,307.2C950.044,307.2,950.044,250.311,950.044,250.311C950.044,250.311,79.644,250.311,79.644,250.311C79.644,250.311,79.644,307.2,79.644,307.2" class="icon-mapfile copy"/><glyph unicode="&#x0049;" d="M512,0M512,0M540.444,0C540.444,0,540.444,0,540.444,0C540.444,0,483.556,0,483.556,0C483.556,0,483.556,0,483.556,0C483.556,0,540.444,0,540.444,0M392.533,39.822C392.533,17.067,375.467,0,352.711,0C352.711,0,39.822,0,39.822,0C17.067,0,0,17.067,0,39.822C0,39.822,0,352.711,0,352.711C0,375.467,17.067,392.533,39.822,392.533C39.822,392.533,352.711,392.533,352.711,392.533C375.467,392.533,392.533,375.467,392.533,352.711C392.533,352.711,392.533,39.822,392.533,39.822C392.533,39.822,392.533,39.822,392.533,39.822M711.111,671.289C711.111,648.533,694.044,631.467,671.289,631.467C671.289,631.467,352.711,631.467,352.711,631.467C329.956,631.467,312.889,648.533,312.889,671.289C312.889,671.289,312.889,984.178,312.889,984.178C312.889,1006.933,329.956,1024,352.711,1024C352.711,1024,665.6,1024,665.6,1024C688.356,1024,705.422,1006.933,705.422,984.178C705.422,984.178,705.422,671.289,705.422,671.289C705.422,671.289,711.111,671.289,711.111,671.289M1024,39.822C1024,17.067,1006.933,0,984.178,0C984.178,0,671.289,0,671.289,0C648.533,0,631.467,17.067,631.467,39.822C631.467,39.822,631.467,352.711,631.467,352.711C631.467,375.467,648.533,392.533,671.289,392.533C671.289,392.533,984.178,392.533,984.178,392.533C1006.933,392.533,1024,375.467,1024,352.711C1024,352.711,1024,39.822,1024,39.822C1024,39.822,1024,39.822,1024,39.822M216.178,392.533C216.178,392.533,176.356,392.533,176.356,392.533C176.356,534.756,324.267,648.533,512,648.533C512,648.533,512,608.711,512,608.711C347.022,608.711,216.178,512,216.178,392.533C216.178,392.533,216.178,392.533,216.178,392.533M847.644,392.533C847.644,392.533,807.822,392.533,807.822,392.533C807.822,512,676.978,608.711,512,608.711C512,608.711,512,648.533,512,648.533C694.044,648.533,847.644,534.756,847.644,392.533C847.644,392.533,847.644,392.533,847.644,392.533" class="icon-assetmodel"/><glyph unicode="&#x004a;" d="M512.111,0C512.111,0,512.111,0,512.111,0C512.111,0,540.556,0,540.556,0C540.556,0,483.667,0,483.667,0M278.867,352.711C278.867,352.711,256.111,352.711,256.111,352.711C256.111,352.711,256.111,261.689,256.111,261.689C256.111,261.689,278.867,261.689,278.867,261.689C307.311,261.689,324.378,273.067,324.378,307.2C330.067,335.644,313,352.711,278.867,352.711C278.867,352.711,278.867,352.711,278.867,352.711M796.556,1024C796.556,1024,57,1024,57,1024C57,1024,57,0,57,0C57,0,967.222,0,967.222,0C967.222,0,967.222,853.333,967.222,853.333C967.222,853.333,796.556,1024,796.556,1024C796.556,1024,796.556,1024,796.556,1024M284.556,216.178C284.556,216.178,256.111,216.178,256.111,216.178C256.111,216.178,256.111,125.156,256.111,125.156C256.111,125.156,193.533,125.156,193.533,125.156C193.533,125.156,193.533,398.222,193.533,398.222C193.533,398.222,284.556,398.222,284.556,398.222C358.511,398.222,398.333,369.778,398.333,307.2C392.644,244.622,347.133,216.178,284.556,216.178C284.556,216.178,284.556,216.178,284.556,216.178M512.111,119.467C512.111,119.467,432.467,119.467,432.467,119.467C432.467,119.467,432.467,398.222,432.467,398.222C432.467,398.222,512.111,398.222,512.111,398.222C586.067,398.222,654.333,375.467,654.333,261.689C648.644,147.911,580.378,119.467,512.111,119.467C512.111,119.467,512.111,119.467,512.111,119.467M847.756,352.711C847.756,352.711,756.733,352.711,756.733,352.711C756.733,352.711,756.733,278.756,756.733,278.756C756.733,278.756,836.378,278.756,836.378,278.756C836.378,278.756,836.378,233.244,836.378,233.244C836.378,233.244,756.733,233.244,756.733,233.244C756.733,233.244,756.733,125.156,756.733,125.156C756.733,125.156,694.156,125.156,694.156,125.156C694.156,125.156,694.156,398.222,694.156,398.222C694.156,398.222,853.444,398.222,853.444,398.222C853.444,398.222,847.756,352.711,847.756,352.711C847.756,352.711,847.756,352.711,847.756,352.711M517.8,352.711C517.8,352.711,495.044,352.711,495.044,352.711C495.044,352.711,495.044,170.667,495.044,170.667C495.044,170.667,517.8,170.667,517.8,170.667C557.622,170.667,586.067,187.733,586.067,261.689C580.378,335.644,551.933,352.711,517.8,352.711C517.8,352.711,517.8,352.711,517.8,352.711M278.867,398.222C278.867,398.222,193.533,398.222,193.533,398.222C193.533,398.222,193.533,119.467,193.533,119.467C193.533,119.467,256.111,119.467,256.111,119.467C256.111,119.467,256.111,210.489,256.111,210.489C256.111,210.489,284.556,210.489,284.556,210.489C347.133,210.489,392.644,238.933,392.644,307.2C392.644,369.778,352.822,398.222,278.867,398.222C278.867,398.222,278.867,398.222,278.867,398.222M278.867,261.689C278.867,261.689,256.111,261.689,256.111,261.689C256.111,261.689,256.111,352.711,256.111,352.711C256.111,352.711,278.867,352.711,278.867,352.711C313,352.711,330.067,341.333,330.067,307.2C330.067,273.067,307.311,261.689,278.867,261.689C278.867,261.689,278.867,261.689,278.867,261.689M506.422,398.222C506.422,398.222,432.467,398.222,432.467,398.222C432.467,398.222,432.467,119.467,432.467,119.467C432.467,119.467,512.111,119.467,512.111,119.467C580.378,119.467,648.644,147.911,648.644,261.689C648.644,375.467,580.378,398.222,506.422,398.222C506.422,398.222,506.422,398.222,506.422,398.222M517.8,170.667C517.8,170.667,495.044,170.667,495.044,170.667C495.044,170.667,495.044,352.711,495.044,352.711C495.044,352.711,517.8,352.711,517.8,352.711C557.622,352.711,586.067,335.644,586.067,261.689C580.378,187.733,557.622,170.667,517.8,170.667C517.8,170.667,517.8,170.667,517.8,170.667M688.467,119.467C688.467,119.467,756.733,119.467,756.733,119.467C756.733,119.467,756.733,233.244,756.733,233.244C756.733,233.244,836.378,233.244,836.378,233.244C836.378,233.244,836.378,278.756,836.378,278.756C836.378,278.756,756.733,278.756,756.733,278.756C756.733,278.756,756.733,352.711,756.733,352.711C756.733,352.711,847.756,352.711,847.756,352.711C847.756,352.711,853.444,398.222,853.444,398.222C853.444,398.222,688.467,398.222,688.467,398.222" class="icon-assetpdf copy"/><glyph unicode="&#x004b;" d="M512.222,0M512.222,0M540.667,0C540.667,0,540.667,0,540.667,0C540.667,0,483.778,0,483.778,0C483.778,0,483.778,0,483.778,0C483.778,0,540.667,0,540.667,0M910.444,682.667C910.444,682.667,910.444,682.667,910.444,682.667C910.444,682.667,569.111,1024,569.111,1024C569.111,1024,569.111,1024,569.111,1024C569.111,1024,114,1024,114,1024C114,1024,114,0,114,0C114,0,910.444,0,910.444,0C910.444,0,910.444,682.667,910.444,682.667C910.444,682.667,910.444,682.667,910.444,682.667C910.444,682.667,910.444,682.667,910.444,682.667M170.889,56.889C170.889,56.889,170.889,967.111,170.889,967.111C170.889,967.111,569.111,967.111,569.111,967.111C569.111,967.111,569.111,682.667,569.111,682.667C569.111,682.667,853.556,682.667,853.556,682.667C853.556,682.667,853.556,56.889,853.556,56.889C853.556,56.889,170.889,56.889,170.889,56.889C170.889,56.889,170.889,56.889,170.889,56.889" class="icon-assetunknown"/><glyph unicode="&#x004c;" d="M512,28.5M512,28.5M540.444,28.5C540.444,28.5,540.444,28.5,540.444,28.5C540.444,28.5,483.556,28.5,483.556,28.5C483.556,28.5,483.556,28.5,483.556,28.5C483.556,28.5,540.444,28.5,540.444,28.5M0,995.611C0,995.611,0,85.389,0,85.389C0,85.389,1024,85.389,1024,85.389C1024,85.389,1024,995.611,1024,995.611C1024,995.611,0,995.611,0,995.611C0,995.611,0,995.611,0,995.611M967.111,142.278C967.111,142.278,56.889,142.278,56.889,142.278C56.889,142.278,56.889,938.722,56.889,938.722C56.889,938.722,967.111,938.722,967.111,938.722C967.111,938.722,967.111,142.278,967.111,142.278C967.111,142.278,967.111,142.278,967.111,142.278M341.333,768.056C341.333,768.056,341.333,312.944,341.333,312.944C341.333,312.944,682.667,540.5,682.667,540.5C682.667,540.5,341.333,768.056,341.333,768.056" class="icon-assetvideo"/><glyph unicode="&#x004d;" d="M512,28.5M512,28.5M540.444,28.5C540.444,28.5,540.444,28.5,540.444,28.5C540.444,28.5,483.556,28.5,483.556,28.5C483.556,28.5,483.556,28.5,483.556,28.5C483.556,28.5,540.444,28.5,540.444,28.5M0,995.611C0,995.611,0,881.833,0,881.833C0,881.833,0,824.944,0,824.944C0,824.944,0,85.389,0,85.389C0,85.389,1024,85.389,1024,85.389C1024,85.389,1024,995.611,1024,995.611C1024,995.611,0,995.611,0,995.611C0,995.611,0,995.611,0,995.611M56.889,881.833C56.889,881.833,113.778,881.833,113.778,881.833C113.778,881.833,113.778,938.722,113.778,938.722C113.778,938.722,910.222,938.722,910.222,938.722C910.222,938.722,910.222,881.833,910.222,881.833C910.222,881.833,56.889,881.833,56.889,881.833C56.889,881.833,56.889,881.833,56.889,881.833C56.889,881.833,56.889,881.833,56.889,881.833M967.111,142.278C967.111,142.278,56.889,142.278,56.889,142.278C56.889,142.278,56.889,824.944,56.889,824.944C56.889,824.944,967.111,824.944,967.111,824.944C967.111,824.944,967.111,142.278,967.111,142.278C967.111,142.278,967.111,142.278,967.111,142.278M170.667,711.167C170.667,711.167,170.667,597.389,170.667,597.389C170.667,597.389,625.778,597.389,625.778,597.389C625.778,597.389,625.778,711.167,625.778,711.167C625.778,711.167,170.667,711.167,170.667,711.167M170.667,540.5C170.667,540.5,170.667,426.722,170.667,426.722C170.667,426.722,853.333,426.722,853.333,426.722C853.333,426.722,853.333,540.5,853.333,540.5C853.333,540.5,170.667,540.5,170.667,540.5M170.667,369.833C170.667,369.833,170.667,256.056,170.667,256.056C170.667,256.056,853.333,256.056,853.333,256.056C853.333,256.056,853.333,369.833,853.333,369.833C853.333,369.833,170.667,369.833,170.667,369.833" class="icon-assetwebpage"/><glyph unicode="&#x004e;" d="M512.111,0M512.111,0M540.556,0C540.556,0,540.556,0,540.556,0C540.556,0,483.667,0,483.667,0C483.667,0,483.667,0,483.667,0C483.667,0,540.556,0,540.556,0M739.667,853.333C739.667,853.333,739.667,170.667,739.667,170.667C739.667,170.667,967.222,170.667,967.222,170.667C967.222,170.667,967.222,853.333,967.222,853.333C967.222,853.333,739.667,853.333,739.667,853.333M57,853.333C57,853.333,57,170.667,57,170.667C57,170.667,694.156,0,694.156,0C694.156,0,694.156,1024,694.156,1024C694.156,1024,57,853.333,57,853.333C57,853.333,57,853.333,57,853.333M546.244,347.022C546.244,347.022,421.089,347.022,421.089,347.022C421.089,347.022,375.578,648.533,375.578,648.533C375.578,648.533,324.378,347.022,324.378,347.022C324.378,347.022,204.911,347.022,204.911,347.022C204.911,347.022,136.644,739.556,136.644,739.556C136.644,739.556,227.667,739.556,227.667,739.556C227.667,739.556,267.489,415.289,267.489,415.289C267.489,415.289,324.378,739.556,324.378,739.556C324.378,739.556,421.089,739.556,421.089,739.556C421.089,739.556,472.289,415.289,472.289,415.289C472.289,415.289,523.489,739.556,523.489,739.556C523.489,739.556,614.511,739.556,614.511,739.556C614.511,739.556,546.244,347.022,546.244,347.022C546.244,347.022,546.244,347.022,546.244,347.022" class="icon-assetword"/><glyph unicode="&#x004f;" d="M512,20M512,20M540.444,20C540.444,20,540.444,20,540.444,20C540.444,20,483.556,20,483.556,20C483.556,20,483.556,20,483.556,20C483.556,20,540.444,20,540.444,20M136.533,532C136.533,736.8,301.511,896.089,500.622,896.089C603.022,896.089,694.044,856.267,756.622,788C756.622,788,654.222,674.222,654.222,674.222C654.222,674.222,1024,600.267,1024,600.267C1024,600.267,910.222,958.667,910.222,958.667C910.222,958.667,830.578,873.333,830.578,873.333C745.244,952.978,631.467,1004.178,500.622,1004.178C244.622,1004.178,34.133,793.689,34.133,532C34.133,532,142.222,514.933,142.222,514.933C136.533,520.622,136.533,526.311,136.533,532C136.533,532,136.533,532,136.533,532M500.622,167.911C415.289,167.911,335.644,196.356,273.067,247.556C273.067,247.556,364.089,349.956,364.089,349.956C364.089,349.956,0,423.911,0,423.911C0,423.911,119.467,71.2,119.467,71.2C119.467,71.2,210.489,167.911,210.489,167.911C290.133,99.644,392.533,65.511,506.311,65.511C756.622,65.511,961.422,264.622,978.489,509.244C978.489,509.244,870.4,532,870.4,532C870.4,327.2,705.422,167.911,500.622,167.911C500.622,167.911,500.622,167.911,500.622,167.911" class="icon-auto"/><glyph unicode="&#x0050;" d="M1024,939.978C1024,939.978,939.604,1018.747,939.604,1018.747C939.604,1018.747,512,591.143,512,591.143C512,591.143,84.396,1018.747,84.396,1018.747C84.396,1018.747,0,939.978,0,939.978C0,939.978,433.231,512.374,433.231,512.374C433.231,512.374,5.626,84.769,5.626,84.769C5.626,84.769,84.396,6,84.396,6C84.396,6,512,433.604,512,433.604C512,433.604,939.604,6,939.604,6C939.604,6,1018.374,84.769,1018.374,84.769C1018.374,84.769,590.769,512.374,590.769,512.374C590.769,512.374,1024,939.978,1024,939.978" class="icon-close"/><glyph unicode="&#x0051;" d="M512,0M512,0M540.444,0C540.444,0,540.444,0,540.444,0C540.444,0,483.556,0,483.556,0C483.556,0,483.556,0,483.556,0C483.556,0,540.444,0,540.444,0M0,1024C0,1024,0,0,0,0C0,0,1024,0,1024,0C1024,0,1024,1024,1024,1024C1024,1024,0,1024,0,1024C0,1024,0,1024,0,1024M238.933,705.422C238.933,705.422,153.6,620.089,153.6,620.089C153.6,620.089,398.222,620.089,398.222,620.089C398.222,620.089,398.222,864.711,398.222,864.711C398.222,864.711,318.578,785.067,318.578,785.067C318.578,785.067,136.533,967.111,136.533,967.111C136.533,967.111,887.467,967.111,887.467,967.111C887.467,967.111,705.422,785.067,705.422,785.067C705.422,785.067,625.778,864.711,625.778,864.711C625.778,864.711,625.778,620.089,625.778,620.089C625.778,620.089,870.4,620.089,870.4,620.089C870.4,620.089,790.756,699.733,790.756,699.733C790.756,699.733,967.111,887.467,967.111,887.467C967.111,887.467,967.111,136.533,967.111,136.533C967.111,136.533,779.378,324.267,779.378,324.267C779.378,324.267,859.022,403.911,859.022,403.911C859.022,403.911,614.4,403.911,614.4,403.911C614.4,403.911,614.4,159.289,614.4,159.289C614.4,159.289,694.044,238.933,694.044,238.933C694.044,238.933,881.778,56.889,881.778,56.889C881.778,56.889,136.533,56.889,136.533,56.889C136.533,56.889,324.267,244.622,324.267,244.622C324.267,244.622,403.911,164.978,403.911,164.978C403.911,164.978,403.911,409.6,403.911,409.6C403.911,409.6,159.289,409.6,159.289,409.6C159.289,409.6,238.933,329.956,238.933,329.956C238.933,329.956,56.889,136.533,56.889,136.533C56.889,136.533,56.889,887.467,56.889,887.467C56.889,887.467,238.933,705.422,238.933,705.422C238.933,705.422,238.933,705.422,238.933,705.422" class="icon-closefullscreen"/><glyph unicode="&#x0052;" d="M512,0M512,0M540.444,0C540.444,0,540.444,0,540.444,0C540.444,0,483.556,0,483.556,0C483.556,0,483.556,0,483.556,0C483.556,0,540.444,0,540.444,0M0,1024C0,1024,0,0,0,0C0,0,1024,0,1024,0C1024,0,1024,1024,1024,1024C1024,1024,0,1024,0,1024C0,1024,0,1024,0,1024M238.933,705.422C238.933,705.422,153.6,620.089,153.6,620.089C153.6,620.089,398.222,620.089,398.222,620.089C398.222,620.089,398.222,864.711,398.222,864.711C398.222,864.711,318.578,785.067,318.578,785.067C318.578,785.067,136.533,967.111,136.533,967.111C136.533,967.111,887.467,967.111,887.467,967.111C887.467,967.111,705.422,785.067,705.422,785.067C705.422,785.067,625.778,864.711,625.778,864.711C625.778,864.711,625.778,620.089,625.778,620.089C625.778,620.089,870.4,620.089,870.4,620.089C870.4,620.089,790.756,699.733,790.756,699.733C790.756,699.733,967.111,887.467,967.111,887.467C967.111,887.467,967.111,136.533,967.111,136.533C967.111,136.533,779.378,324.267,779.378,324.267C779.378,324.267,859.022,403.911,859.022,403.911C859.022,403.911,614.4,403.911,614.4,403.911C614.4,403.911,614.4,159.289,614.4,159.289C614.4,159.289,694.044,238.933,694.044,238.933C694.044,238.933,881.778,56.889,881.778,56.889C881.778,56.889,136.533,56.889,136.533,56.889C136.533,56.889,324.267,244.622,324.267,244.622C324.267,244.622,403.911,164.978,403.911,164.978C403.911,164.978,403.911,409.6,403.911,409.6C403.911,409.6,159.289,409.6,159.289,409.6C159.289,409.6,238.933,329.956,238.933,329.956C238.933,329.956,56.889,136.533,56.889,136.533C56.889,136.533,56.889,887.467,56.889,887.467C56.889,887.467,238.933,705.422,238.933,705.422C238.933,705.422,238.933,705.422,238.933,705.422" class="icon-closefullscreen"/><glyph unicode="&#x0053;" d="M927.4,910.222C927.4,910.222,665.711,910.222,665.711,910.222C665.711,910.222,654.333,972.8,654.333,972.8C648.644,1001.244,625.889,1024,597.444,1024C597.444,1024,432.467,1024,432.467,1024C404.022,1024,381.267,1001.244,375.578,972.8C375.578,972.8,364.2,910.222,364.2,910.222C364.2,910.222,96.822,910.222,96.822,910.222C74.067,910.222,57,893.156,57,870.4C57,870.4,57,836.267,57,836.267C57,813.511,74.067,796.444,96.822,796.444C96.822,796.444,927.4,796.444,927.4,796.444C950.156,796.444,967.222,813.511,967.222,836.267C967.222,836.267,967.222,870.4,967.222,870.4C967.222,893.156,950.156,910.222,927.4,910.222C927.4,910.222,927.4,910.222,927.4,910.222M426.778,967.111C426.778,967.111,432.467,972.8,426.778,967.111C426.778,967.111,591.756,972.8,591.756,972.8C591.756,972.8,597.444,972.8,597.444,967.111C597.444,967.111,608.822,915.911,608.822,915.911C608.822,915.911,415.4,915.911,415.4,915.911C415.4,915.911,426.778,967.111,426.778,967.111C426.778,967.111,426.778,967.111,426.778,967.111M170.778,739.556C170.778,739.556,170.778,108.089,170.778,108.089C170.778,79.644,170.778,0,278.867,0C278.867,0,745.356,0,745.356,0C853.444,0,853.444,79.644,853.444,108.089C853.444,108.089,853.444,739.556,853.444,739.556C853.444,739.556,170.778,739.556,170.778,739.556C170.778,739.556,170.778,739.556,170.778,739.556" class="icon-delete"/><glyph unicode="&#x0054;" d="M512,0M512,0M540.444,0C540.444,0,540.444,0,540.444,0C540.444,0,483.556,0,483.556,0C483.556,0,483.556,0,483.556,0C483.556,0,540.444,0,540.444,0M853.333,1024C853.333,1024,170.667,1024,170.667,1024C73.956,1024,0,950.044,0,853.333C0,853.333,0,170.667,0,170.667C0,79.644,73.956,0,170.667,0C170.667,0,853.333,0,853.333,0C950.044,0,1024,79.644,1024,170.667C1024,170.667,1024,853.333,1024,853.333C1024,950.044,950.044,1024,853.333,1024C853.333,1024,853.333,1024,853.333,1024M967.111,170.667C967.111,108.089,915.911,56.889,853.333,56.889C853.333,56.889,170.667,56.889,170.667,56.889C108.089,56.889,56.889,108.089,56.889,170.667C56.889,170.667,56.889,853.333,56.889,853.333C56.889,915.911,108.089,967.111,170.667,967.111C170.667,967.111,853.333,967.111,853.333,967.111C915.911,967.111,967.111,915.911,967.111,853.333C967.111,853.333,967.111,170.667,967.111,170.667C967.111,170.667,967.111,170.667,967.111,170.667M170.667,853.333C170.667,853.333,170.667,739.556,170.667,739.556C170.667,739.556,853.333,739.556,853.333,739.556C853.333,739.556,853.333,853.333,853.333,853.333C853.333,853.333,170.667,853.333,170.667,853.333M170.667,625.778C170.667,625.778,170.667,512,170.667,512C170.667,512,568.889,512,568.889,512C568.889,512,568.889,625.778,568.889,625.778C568.889,625.778,170.667,625.778,170.667,625.778M170.667,284.444C170.667,284.444,170.667,170.667,170.667,170.667C170.667,170.667,341.333,170.667,341.333,170.667C341.333,170.667,341.333,284.444,341.333,284.444C341.333,284.444,170.667,284.444,170.667,284.444M398.222,284.444C398.222,284.444,398.222,170.667,398.222,170.667C398.222,170.667,853.333,170.667,853.333,170.667C853.333,170.667,853.333,284.444,853.333,284.444C853.333,284.444,398.222,284.444,398.222,284.444" class="icon-detail"/><glyph unicode="&#x0055;" d="M910.222,1021.311C910.222,1021.311,113.778,1021.311,113.778,1021.311C51.2,1021.311,0,970.111,0,907.533C0,907.533,0,338.644,0,338.644C0,276.067,51.2,224.867,113.778,224.867C113.778,224.867,227.556,224.867,227.556,224.867C227.556,224.867,227.556,3,227.556,3C227.556,3,540.444,224.867,540.444,224.867C540.444,224.867,910.222,224.867,910.222,224.867C972.8,224.867,1024,276.067,1024,338.644C1024,338.644,1024,907.533,1024,907.533C1024,970.111,972.8,1021.311,910.222,1021.311C910.222,1021.311,910.222,1021.311,910.222,1021.311" class="icon-discussion"/><glyph unicode="&#x0056;" d="M512.133,863.614C512.133,863.614,845.241,586.024,845.241,586.024C845.241,586.024,919.265,684.723,919.265,684.723C919.265,684.723,512.133,1024,512.133,1024C512.133,1024,105,684.723,105,684.723C105,684.723,179.024,586.024,179.024,586.024C179.024,586.024,512.133,863.614,512.133,863.614M512.133,160.386C512.133,160.386,179.024,437.976,179.024,437.976C179.024,437.976,105,339.277,105,339.277C105,339.277,512.133,0,512.133,0C512.133,0,919.265,339.277,919.265,339.277C919.265,339.277,845.241,437.976,845.241,437.976C845.241,437.976,512.133,160.386,512.133,160.386" class="icon-dropdown"/><glyph unicode="&#x0057;" d="M0.5,1.5C0.5,1.5,268.215,1.5,268.215,1.5C268.215,1.5,0.5,269.215,0.5,269.215C0.5,269.215,0.5,1.5,0.5,1.5M1001.243,734.529C1039.488,785.522,1033.114,893.883,962.998,963.998C892.883,1034.114,778.148,1034.114,733.529,1002.243C733.529,1002.243,733.529,1002.243,733.529,1002.243C733.529,1002.243,727.154,995.869,727.154,995.869C727.154,995.869,727.154,995.869,720.78,995.869C720.78,995.869,714.406,989.495,714.406,989.495C714.406,989.495,64.242,339.331,64.242,339.331C64.242,339.331,338.331,65.242,338.331,65.242C338.331,65.242,1001.243,734.529,1001.243,734.529C1001.243,734.529,1001.243,734.529,1001.243,734.529C1001.243,734.529,1001.243,734.529,1001.243,734.529M446.691,1.5C446.691,1.5,1020.366,1.5,1020.366,1.5C1020.366,1.5,1020.366,128.983,1020.366,128.983C1020.366,128.983,574.175,128.983,574.175,128.983C574.175,128.983,446.691,1.5,446.691,1.5" class="icon-edit"/><glyph unicode="&#x0058;" d="M512,1024C230.4,1024,0,793.6,0,512C0,230.4,230.4,0,512,0C793.6,0,1024,230.4,1024,512C1024,793.6,793.6,1024,512,1024C512,1024,512,1024,512,1024M426.667,853.333C426.667,853.333,597.333,853.333,597.333,853.333C597.333,853.333,597.333,341.333,597.333,341.333C597.333,341.333,426.667,341.333,426.667,341.333C426.667,341.333,426.667,853.333,426.667,853.333C426.667,853.333,426.667,853.333,426.667,853.333M597.333,170.667C597.333,170.667,426.667,170.667,426.667,170.667C426.667,170.667,426.667,256,426.667,256C426.667,256,597.333,256,597.333,256C597.333,256,597.333,170.667,597.333,170.667C597.333,170.667,597.333,170.667,597.333,170.667" class="icon-errors"/><glyph unicode="&#x0059;" d="M448,0C448,0,0,0,0,0C0,0,0,704,0,704C0,704,448,1024,448,1024C448,1024,448,0,448,0M576,576C576,576,576,0,576,0C576,0,1024,0,1024,0C1024,0,1024,576,1024,576C1024,576,576,576,576,576M896,1024C896,832,896,704,576,704C576,704,576,704,576,704C576,1024,704,1024,896,1024" class="icon-favion"/><glyph unicode="&#x005a;" d="M512,0M512,0M540.444,0C540.444,0,540.444,0,540.444,0C540.444,0,483.556,0,483.556,0C483.556,0,483.556,0,483.556,0C483.556,0,540.444,0,540.444,0M1024,0C1024,0,1024,244.622,1024,244.622C1024,244.622,944.356,164.978,944.356,164.978C944.356,164.978,853.333,250.311,853.333,250.311C853.333,250.311,853.333,773.689,853.333,773.689C853.333,773.689,938.667,859.022,938.667,859.022C938.667,859.022,1024,779.378,1024,779.378C1024,779.378,1024,1024,1024,1024C1024,1024,779.378,1024,779.378,1024C779.378,1024,859.022,944.356,859.022,944.356C859.022,944.356,773.689,853.333,773.689,853.333C773.689,853.333,250.311,853.333,250.311,853.333C250.311,853.333,164.978,938.667,164.978,938.667C164.978,938.667,244.622,1024,244.622,1024C244.622,1024,0,1024,0,1024C0,1024,0,779.378,0,779.378C0,779.378,79.644,859.022,79.644,859.022C79.644,859.022,170.667,773.689,170.667,773.689C170.667,773.689,170.667,256,170.667,256C170.667,256,79.644,164.978,79.644,164.978C79.644,164.978,0,244.622,0,244.622C0,244.622,0,0,0,0C0,0,244.622,0,244.622,0C244.622,0,164.978,79.644,164.978,79.644C164.978,79.644,250.311,170.667,250.311,170.667C250.311,170.667,768,170.667,768,170.667C768,170.667,859.022,79.644,859.022,79.644C859.022,79.644,779.378,0,779.378,0C779.378,0,1024,0,1024,0C1024,0,1024,0,1024,0M312.889,227.556C312.889,227.556,403.911,318.578,403.911,318.578C403.911,318.578,318.578,398.222,318.578,398.222C318.578,398.222,227.556,307.2,227.556,307.2C227.556,307.2,227.556,711.111,227.556,711.111C227.556,711.111,318.578,620.089,318.578,620.089C318.578,620.089,398.222,699.733,398.222,699.733C398.222,699.733,307.2,796.444,307.2,796.444C307.2,796.444,716.8,796.444,716.8,796.444C716.8,796.444,625.778,699.733,625.778,699.733C625.778,699.733,705.422,620.089,705.422,620.089C705.422,620.089,796.444,716.8,796.444,716.8C796.444,716.8,796.444,307.2,796.444,307.2C796.444,307.2,705.422,398.222,705.422,398.222C705.422,398.222,625.778,318.578,625.778,318.578C625.778,318.578,716.8,227.556,716.8,227.556C716.8,227.556,312.889,227.556,312.889,227.556C312.889,227.556,312.889,227.556,312.889,227.556" class="icon-fullscreen"/><glyph unicode="&#x0061;" d="M896,776.533C896,776.533,1024,657.067,1024,657.067C1024,657.067,1024,1024,1024,1024C1024,1024,657.067,1024,657.067,1024C657.067,1024,776.533,896,776.533,896C776.533,896,512,631.467,512,631.467C512,631.467,247.467,896,247.467,896C247.467,896,366.933,1024,366.933,1024C366.933,1024,0,1024,0,1024C0,1024,0,657.067,0,657.067C0,657.067,128,776.533,128,776.533C128,776.533,392.533,512,392.533,512C392.533,512,128,247.467,128,247.467C128,247.467,0,366.933,0,366.933C0,366.933,0,0,0,0C0,0,366.933,0,366.933,0C366.933,0,247.467,128,247.467,128C247.467,128,512,392.533,512,392.533C512,392.533,776.533,128,776.533,128C776.533,128,657.067,0,657.067,0C657.067,0,1024,0,1024,0C1024,0,1024,366.933,1024,366.933C1024,366.933,896,247.467,896,247.467C896,247.467,631.467,512,631.467,512C631.467,512,896,776.533,896,776.533" class="icon-fullview"/><glyph unicode="&#x0062;" d="M512,910.222C733.867,910.222,910.222,733.867,910.222,512C910.222,290.133,733.867,113.778,512,113.778C290.133,113.778,113.778,290.133,113.778,512C113.778,733.867,290.133,910.222,512,910.222M512,1024C227.556,1024,0,796.444,0,512C0,227.556,227.556,0,512,0C796.444,0,1024,227.556,1024,512C1024,796.444,796.444,1024,512,1024C512,1024,512,1024,512,1024C512,1024,512,1024,512,1024M773.689,386.844C773.689,386.844,568.889,540.444,568.889,540.444C568.889,540.444,568.889,739.556,568.889,739.556C568.889,773.689,546.133,796.444,512,796.444C477.867,796.444,455.111,768,455.111,739.556C455.111,739.556,455.111,512,455.111,512C455.111,512,455.111,512,455.111,506.311C455.111,500.622,455.111,500.622,455.111,494.933C455.111,489.244,455.111,489.244,460.8,483.556C460.8,477.867,466.489,477.867,466.489,472.178C466.489,466.489,472.178,466.489,472.178,460.8C472.178,460.8,472.178,460.8,472.178,455.111C472.178,455.111,699.733,284.444,699.733,284.444C716.8,284.444,728.178,284.444,739.556,284.444C756.622,284.444,773.689,290.133,785.067,307.2C807.822,329.956,802.133,364.089,773.689,386.844C773.689,386.844,773.689,386.844,773.689,386.844" class="icon-history"/><glyph unicode="&#x0063;" d="M512,117M512,117M540.444,117C540.444,117,540.444,117,540.444,117C540.444,117,483.556,117,483.556,117C483.556,117,483.556,117,483.556,117C483.556,117,540.444,117,540.444,117M233.244,685.889C233.244,685.889,0,685.889,0,685.889C0,685.889,0,572.111,0,572.111C0,572.111,233.244,572.111,233.244,572.111C233.244,572.111,233.244,350.244,233.244,350.244C233.244,350.244,512,629,512,629C512,629,233.244,907.756,233.244,907.756C233.244,907.756,233.244,685.889,233.244,685.889M921.6,856.556C921.6,856.556,671.289,856.556,671.289,856.556C568.889,856.556,568.889,776.911,568.889,754.156C568.889,754.156,568.889,503.844,568.889,503.844C568.889,481.089,568.889,401.444,671.289,401.444C671.289,401.444,921.6,401.444,921.6,401.444C1024,401.444,1024,481.089,1024,503.844C1024,503.844,1024,754.156,1024,754.156C1024,776.911,1024,856.556,921.6,856.556C921.6,856.556,921.6,856.556,921.6,856.556" class="icon-insert"/><glyph unicode="&#x0064;" d="M512,117M512,117M540.444,117C540.444,117,540.444,117,540.444,117C540.444,117,483.556,117,483.556,117C483.556,117,483.556,117,483.556,117C483.556,117,540.444,117,540.444,117M506.311,799.667C449.422,867.933,369.778,907.756,284.444,907.756C125.156,907.756,0,782.6,0,623.311C0,464.022,125.156,338.867,284.444,338.867C403.911,338.867,506.311,412.822,551.822,520.911C551.822,520.911,682.667,572.111,682.667,572.111C682.667,572.111,796.444,515.222,796.444,515.222C796.444,515.222,910.222,577.8,910.222,577.8C910.222,577.8,1024,515.222,1024,515.222C1024,515.222,1024,799.667,1024,799.667C1024,799.667,506.311,799.667,506.311,799.667C506.311,799.667,506.311,799.667,506.311,799.667M284.444,515.222C221.867,515.222,170.667,566.422,170.667,629C170.667,691.578,221.867,742.778,284.444,742.778C347.022,742.778,398.222,691.578,398.222,629C398.222,566.422,347.022,515.222,284.444,515.222C284.444,515.222,284.444,515.222,284.444,515.222" class="icon-key"/><glyph unicode="&#x0065;" d="M512,0M512,0M540.444,0C540.444,0,540.444,0,540.444,0C540.444,0,483.556,0,483.556,0C483.556,0,483.556,0,483.556,0C483.556,0,540.444,0,540.444,0M0,768C0,768,512,512,512,512C512,512,1024,768,1024,768C1024,768,512,1024,512,1024C512,1024,0,768,0,768M512,415.289C512,415.289,193.422,574.578,193.422,574.578C193.422,574.578,0,512,0,512C0,512,512,256,512,256C512,256,1024,512,1024,512C1024,512,841.956,580.267,841.956,580.267C841.956,580.267,512,415.289,512,415.289M512,159.289C512,159.289,193.422,318.578,193.422,318.578C193.422,318.578,0,256,0,256C0,256,512,0,512,0C512,0,1024,256,1024,256C1024,256,841.956,324.267,841.956,324.267C841.956,324.267,512,159.289,512,159.289" class="icon-layers"/><glyph unicode="&#x0066;" d="M512,85.5M512,85.5M540.444,85.5C540.444,85.5,540.444,85.5,540.444,85.5C540.444,85.5,483.556,85.5,483.556,85.5C483.556,85.5,483.556,85.5,483.556,85.5C483.556,85.5,540.444,85.5,540.444,85.5M967.111,938.833C967.111,938.833,0,938.833,0,938.833C0,938.833,0,825.056,0,825.056C0,825.056,0,256.167,0,256.167C0,256.167,1024,256.167,1024,256.167C1024,256.167,1024,938.833,1024,938.833C1024,938.833,967.111,938.833,967.111,938.833C967.111,938.833,967.111,938.833,967.111,938.833M967.111,313.056C967.111,313.056,56.889,313.056,56.889,313.056C56.889,313.056,56.889,825.056,56.889,825.056C56.889,825.056,967.111,825.056,967.111,825.056C967.111,825.056,967.111,313.056,967.111,313.056C967.111,313.056,967.111,313.056,967.111,313.056M170.667,711.278C170.667,711.278,170.667,597.5,170.667,597.5C170.667,597.5,625.778,597.5,625.778,597.5C625.778,597.5,625.778,711.278,625.778,711.278C625.778,711.278,170.667,711.278,170.667,711.278M170.667,540.611C170.667,540.611,170.667,426.833,170.667,426.833C170.667,426.833,853.333,426.833,853.333,426.833C853.333,426.833,853.333,540.611,853.333,540.611C853.333,540.611,170.667,540.611,170.667,540.611" class="icon-legend"/><glyph unicode="&#x0067;" d="M512,0C512,0,512,0,512,0C512,0,540.444,0,540.444,0C540.444,0,483.556,0,483.556,0M0,1024C0,1024,341.333,1024,341.333,1024C341.333,1024,341.333,910.222,341.333,910.222C341.333,910.222,0,910.222,0,910.222C0,910.222,0,1024,0,1024M0,796.444C0,796.444,512,796.444,512,796.444C512,796.444,512,682.667,512,682.667C512,682.667,0,682.667,0,682.667C0,682.667,0,796.444,0,796.444M0,568.889C0,568.889,682.667,568.889,682.667,568.889C682.667,568.889,682.667,455.111,682.667,455.111C682.667,455.111,0,455.111,0,455.111C0,455.111,0,568.889,0,568.889M0,341.333C0,341.333,853.333,341.333,853.333,341.333C853.333,341.333,853.333,227.556,853.333,227.556C853.333,227.556,0,227.556,0,227.556C0,227.556,0,341.333,0,341.333M0,113.778C0,113.778,1024,113.778,1024,113.778C1024,113.778,1024,0,1024,0C1024,0,0,0,0,0C0,0,0,113.778,0,113.778" class="icon-levels copy"/><glyph unicode="&#x0068;" d="M981.833,682.667C981.833,682.667,853.833,682.667,853.833,682.667C853.833,682.667,853.833,810.667,853.833,810.667C853.833,832,836.767,853.333,811.167,853.333C811.167,853.333,683.167,853.333,683.167,853.333C683.167,853.333,683.167,981.333,683.167,981.333C683.167,1002.667,666.1,1024,640.5,1024C640.5,1024,43.167,1024,43.167,1024C21.833,1024,0.5,1002.667,0.5,981.333C0.5,981.333,0.5,384,0.5,384C0.5,358.4,21.833,341.333,43.167,341.333C43.167,341.333,171.167,341.333,171.167,341.333C171.167,341.333,171.167,213.333,171.167,213.333C171.167,187.733,192.5,170.667,213.833,170.667C213.833,170.667,341.833,170.667,341.833,170.667C341.833,170.667,341.833,42.667,341.833,42.667C341.833,21.333,363.167,0,384.5,0C384.5,0,981.833,0,981.833,0C1003.167,0,1024.5,21.333,1024.5,42.667C1024.5,42.667,1024.5,640,1024.5,640C1024.5,661.333,1003.167,682.667,981.833,682.667C981.833,682.667,981.833,682.667,981.833,682.667M85.833,426.667C85.833,426.667,85.833,938.667,85.833,938.667C85.833,938.667,597.833,938.667,597.833,938.667C597.833,938.667,597.833,426.667,597.833,426.667C597.833,426.667,85.833,426.667,85.833,426.667C85.833,426.667,85.833,426.667,85.833,426.667M256.5,256C256.5,256,256.5,341.333,256.5,341.333C256.5,341.333,640.5,341.333,640.5,341.333C661.833,341.333,683.167,358.4,683.167,384C683.167,384,683.167,768,683.167,768C683.167,768,768.5,768,768.5,768C768.5,768,768.5,256,768.5,256C768.5,256,256.5,256,256.5,256C256.5,256,256.5,256,256.5,256M939.167,85.333C939.167,85.333,427.167,85.333,427.167,85.333C427.167,85.333,427.167,170.667,427.167,170.667C427.167,170.667,811.167,170.667,811.167,170.667C832.5,170.667,853.833,187.733,853.833,213.333C853.833,213.333,853.833,597.333,853.833,597.333C853.833,597.333,939.167,597.333,939.167,597.333C939.167,597.333,939.167,85.333,939.167,85.333C939.167,85.333,939.167,85.333,939.167,85.333" class="icon-manageasset"/><glyph unicode="&#x0069;" d="M1020.062,551.385C1004.308,787.692,803.446,1004.308,551.385,1020.062C551.385,1020.062,551.385,1024,551.385,1024C551.385,1024,512,1024,512,1024C512,1024,512,1024,512,1024C512,1024,512,1024,512,1024C512,1024,472.615,1024,472.615,1024C472.615,1024,472.615,1020.062,472.615,1020.062C220.554,1004.308,19.692,787.692,3.938,551.385C3.938,551.385,0,551.385,0,551.385C0,551.385,0,472.615,0,472.615C0,472.615,3.938,472.615,3.938,472.615C19.692,236.308,220.554,19.692,472.615,0C472.615,0,472.615,0,472.615,0C472.615,0,551.385,0,551.385,0C551.385,0,551.385,0,551.385,0C803.446,19.692,1004.308,236.308,1020.062,472.615C1020.062,472.615,1024,472.615,1024,472.615C1024,472.615,1020.062,551.385,1020.062,551.385C1020.062,551.385,1020.062,551.385,1020.062,551.385C1020.062,551.385,1020.062,551.385,1020.062,551.385M787.692,551.385C787.692,590.769,779.815,630.154,775.877,669.538C775.877,669.538,917.662,669.538,917.662,669.538C933.415,630.154,941.292,590.769,945.231,551.385C945.231,551.385,787.692,551.385,787.692,551.385C787.692,551.385,787.692,551.385,787.692,551.385M673.477,748.308C673.477,748.308,551.385,748.308,551.385,748.308C551.385,748.308,551.385,933.415,551.385,933.415C598.646,909.785,641.969,827.077,673.477,748.308C673.477,748.308,673.477,748.308,673.477,748.308M472.615,933.415C472.615,933.415,472.615,748.308,472.615,748.308C472.615,748.308,350.523,748.308,350.523,748.308C382.031,827.077,425.354,909.785,472.615,933.415C472.615,933.415,472.615,933.415,472.615,933.415M472.615,669.538C472.615,669.538,472.615,551.385,472.615,551.385C472.615,551.385,315.077,551.385,315.077,551.385C315.077,590.769,322.954,630.154,330.831,669.538C330.831,669.538,472.615,669.538,472.615,669.538C472.615,669.538,472.615,669.538,472.615,669.538M472.615,472.615C472.615,472.615,472.615,354.462,472.615,354.462C472.615,354.462,330.831,354.462,330.831,354.462C322.954,393.846,319.015,433.231,319.015,472.615C319.015,472.615,472.615,472.615,472.615,472.615C472.615,472.615,472.615,472.615,472.615,472.615M472.615,275.692C472.615,275.692,472.615,90.585,472.615,90.585C425.354,114.215,378.092,196.923,350.523,275.692C350.523,275.692,472.615,275.692,472.615,275.692C472.615,275.692,472.615,275.692,472.615,275.692M551.385,90.585C551.385,90.585,551.385,275.692,551.385,275.692C551.385,275.692,673.477,275.692,673.477,275.692C645.908,196.923,598.646,114.215,551.385,90.585C551.385,90.585,551.385,90.585,551.385,90.585M551.385,354.462C551.385,354.462,551.385,472.615,551.385,472.615C551.385,472.615,708.923,472.615,708.923,472.615C708.923,433.231,701.046,393.846,697.108,354.462C697.108,354.462,551.385,354.462,551.385,354.462C551.385,354.462,551.385,354.462,551.385,354.462M551.385,551.385C551.385,551.385,551.385,669.538,551.385,669.538C551.385,669.538,693.169,669.538,693.169,669.538C701.046,630.154,704.985,590.769,708.923,551.385C708.923,551.385,551.385,551.385,551.385,551.385C551.385,551.385,551.385,551.385,551.385,551.385M874.338,748.308C874.338,748.308,756.185,748.308,756.185,748.308C740.431,827.077,716.8,862.523,685.292,905.846C764.062,870.4,827.077,827.077,874.338,748.308C874.338,748.308,874.338,748.308,874.338,748.308M338.708,905.846C311.138,862.523,287.508,827.077,267.815,748.308C267.815,748.308,149.662,748.308,149.662,748.308C196.923,827.077,259.938,870.4,338.708,905.846C338.708,905.846,338.708,905.846,338.708,905.846M110.277,669.538C110.277,669.538,252.062,669.538,252.062,669.538C244.185,630.154,240.246,590.769,240.246,551.385C240.246,551.385,82.708,551.385,82.708,551.385C82.708,590.769,94.523,630.154,110.277,669.538C110.277,669.538,110.277,669.538,110.277,669.538M236.308,472.615C236.308,433.231,240.246,393.846,248.123,354.462C248.123,354.462,106.338,354.462,106.338,354.462C90.585,393.846,82.708,433.231,78.769,472.615C78.769,472.615,236.308,472.615,236.308,472.615C236.308,472.615,236.308,472.615,236.308,472.615M145.723,275.692C145.723,275.692,263.877,275.692,263.877,275.692C279.631,196.923,307.2,157.538,334.769,114.215C259.938,145.723,192.985,196.923,145.723,275.692C145.723,275.692,145.723,275.692,145.723,275.692M685.292,114.215C712.862,157.538,740.431,196.923,756.185,275.692C756.185,275.692,874.338,275.692,874.338,275.692C831.015,196.923,764.062,145.723,685.292,114.215C685.292,114.215,685.292,114.215,685.292,114.215M917.662,354.462C917.662,354.462,775.877,354.462,775.877,354.462C783.754,393.846,787.692,433.231,787.692,472.615C787.692,472.615,945.231,472.615,945.231,472.615C941.292,433.231,929.477,393.846,917.662,354.462C917.662,354.462,917.662,354.462,917.662,354.462" class="icon-map"/><glyph unicode="&#x006a;" d="M512,967.111C762.311,967.111,967.111,762.311,967.111,512C967.111,261.689,762.311,56.889,512,56.889C261.689,56.889,56.889,261.689,56.889,512C56.889,762.311,261.689,967.111,512,967.111M512,1024C227.556,1024,0,796.444,0,512C0,227.556,227.556,0,512,0C796.444,0,1024,227.556,1024,512C1024,796.444,796.444,1024,512,1024C512,1024,512,1024,512,1024M512,967.111C614.4,967.111,728.178,779.378,728.178,512C728.178,244.622,614.4,56.889,512,56.889C409.6,56.889,295.822,244.622,295.822,512C295.822,779.378,409.6,967.111,512,967.111M512,1024C358.4,1024,238.933,796.444,238.933,512C238.933,227.556,364.089,0,512,0C659.911,0,785.067,227.556,785.067,512C785.067,796.444,665.6,1024,512,1024C512,1024,512,1024,512,1024M483.556,1024C483.556,1024,540.444,1024,540.444,1024C540.444,1024,540.444,0,540.444,0C540.444,0,483.556,0,483.556,0C483.556,0,483.556,1024,483.556,1024M0,540.444C0,540.444,1024,540.444,1024,540.444C1024,540.444,1024,483.556,1024,483.556C1024,483.556,0,483.556,0,483.556C0,483.556,0,540.444,0,540.444M955.733,722.489C955.733,722.489,79.644,722.489,79.644,722.489C79.644,722.489,79.644,779.378,79.644,779.378C79.644,779.378,932.978,779.378,932.978,779.378M79.644,307.2C79.644,307.2,950.044,307.2,950.044,307.2C950.044,307.2,950.044,250.311,950.044,250.311C950.044,250.311,79.644,250.311,79.644,250.311C79.644,250.311,79.644,307.2,79.644,307.2" class="icon-mapfile copy"/><glyph unicode="&#x006b;" d="M984.615,393.846C984.615,393.846,846.769,393.846,846.769,393.846C846.769,500.185,760.123,590.769,638.031,630.154C638.031,630.154,669.538,630.154,669.538,630.154C689.231,630.154,708.923,649.846,708.923,669.538C708.923,669.538,708.923,984.615,708.923,984.615C708.923,1004.308,689.231,1024,669.538,1024C669.538,1024,354.462,1024,354.462,1024C334.769,1024,315.077,1004.308,315.077,984.615C315.077,984.615,315.077,669.538,315.077,669.538C315.077,649.846,334.769,630.154,354.462,630.154C354.462,630.154,385.969,630.154,385.969,630.154C263.877,590.769,177.231,500.185,177.231,393.846C177.231,393.846,39.385,393.846,39.385,393.846C19.692,393.846,0,374.154,0,354.462C0,354.462,0,39.385,0,39.385C0,19.692,19.692,0,39.385,0C39.385,0,354.462,0,354.462,0C374.154,0,393.846,19.692,393.846,39.385C393.846,39.385,393.846,354.462,393.846,354.462C393.846,374.154,374.154,393.846,354.462,393.846C354.462,393.846,216.615,393.846,216.615,393.846C216.615,512,350.523,610.462,512,610.462C673.477,610.462,807.385,512,807.385,393.846C807.385,393.846,669.538,393.846,669.538,393.846C649.846,393.846,630.154,374.154,630.154,354.462C630.154,354.462,630.154,39.385,630.154,39.385C630.154,19.692,649.846,0,669.538,0C669.538,0,984.615,0,984.615,0C1004.308,0,1024,19.692,1024,39.385C1024,39.385,1024,354.462,1024,354.462C1024,374.154,1004.308,393.846,984.615,393.846C984.615,393.846,984.615,393.846,984.615,393.846" class="icon-model"/><glyph unicode="&#x006c;" d="M512,0M512,0M540.444,0C540.444,0,540.444,0,540.444,0C540.444,0,483.556,0,483.556,0C483.556,0,483.556,0,483.556,0C483.556,0,540.444,0,540.444,0M392.533,39.822C392.533,17.067,375.467,0,352.711,0C352.711,0,39.822,0,39.822,0C17.067,0,0,17.067,0,39.822C0,39.822,0,352.711,0,352.711C0,375.467,17.067,392.533,39.822,392.533C39.822,392.533,352.711,392.533,352.711,392.533C375.467,392.533,392.533,375.467,392.533,352.711C392.533,352.711,392.533,39.822,392.533,39.822C392.533,39.822,392.533,39.822,392.533,39.822M711.111,671.289C711.111,648.533,694.044,631.467,671.289,631.467C671.289,631.467,352.711,631.467,352.711,631.467C329.956,631.467,312.889,648.533,312.889,671.289C312.889,671.289,312.889,984.178,312.889,984.178C312.889,1006.933,329.956,1024,352.711,1024C352.711,1024,665.6,1024,665.6,1024C688.356,1024,705.422,1006.933,705.422,984.178C705.422,984.178,705.422,671.289,705.422,671.289C705.422,671.289,711.111,671.289,711.111,671.289M1024,39.822C1024,17.067,1006.933,0,984.178,0C984.178,0,671.289,0,671.289,0C648.533,0,631.467,17.067,631.467,39.822C631.467,39.822,631.467,352.711,631.467,352.711C631.467,375.467,648.533,392.533,671.289,392.533C671.289,392.533,984.178,392.533,984.178,392.533C1006.933,392.533,1024,375.467,1024,352.711C1024,352.711,1024,39.822,1024,39.822C1024,39.822,1024,39.822,1024,39.822M216.178,392.533C216.178,392.533,176.356,392.533,176.356,392.533C176.356,534.756,324.267,648.533,512,648.533C512,648.533,512,608.711,512,608.711C347.022,608.711,216.178,512,216.178,392.533C216.178,392.533,216.178,392.533,216.178,392.533M847.644,392.533C847.644,392.533,807.822,392.533,807.822,392.533C807.822,512,676.978,608.711,512,608.711C512,608.711,512,648.533,512,648.533C694.044,648.533,847.644,534.756,847.644,392.533C847.644,392.533,847.644,392.533,847.644,392.533" class="icon-modelfile"/><glyph unicode="&#x006d;" d="M0,512.429C0,402.918,118.5,334.538,213.333,389.265C257.365,414.694,284.444,461.627,284.444,512.429C284.444,621.94,165.945,690.321,71.111,635.594C27.079,610.164,0,563.231,0,512.429M369.778,512.429C369.778,402.918,488.277,334.538,583.111,389.265C627.143,414.694,654.222,461.627,654.222,512.429C654.222,621.94,535.723,690.321,440.889,635.594C396.857,610.164,369.778,563.231,369.778,512.429M739.556,512.429C739.556,402.918,858.055,334.538,952.889,389.265C996.921,414.694,1024,461.627,1024,512.429C1024,621.94,905.5,690.321,810.667,635.594C766.635,610.164,739.556,563.231,739.556,512.429" class="icon-more"/><glyph unicode="&#x006e;" d="M512,0M512,0M540.444,0C540.444,0,540.444,0,540.444,0C540.444,0,483.556,0,483.556,0C483.556,0,483.556,0,483.556,0C483.556,0,540.444,0,540.444,0M1024,568.889C1024,568.889,568.889,568.889,568.889,568.889C568.889,568.889,568.889,1024,568.889,1024C568.889,1024,455.111,1024,455.111,1024C455.111,1024,455.111,568.889,455.111,568.889C455.111,568.889,0,568.889,0,568.889C0,568.889,0,455.111,0,455.111C0,455.111,455.111,455.111,455.111,455.111C455.111,455.111,455.111,0,455.111,0C455.111,0,568.889,0,568.889,0C568.889,0,568.889,455.111,568.889,455.111C568.889,455.111,1024,455.111,1024,455.111C1024,455.111,1024,568.889,1024,568.889" class="icon-new"/><glyph unicode="&#x006f;" d="M512,0M512,0M540.444,0C540.444,0,540.444,0,540.444,0C540.444,0,483.556,0,483.556,0C483.556,0,483.556,0,483.556,0C483.556,0,540.444,0,540.444,0M967.111,796.444C967.111,796.444,796.444,796.444,796.444,796.444C796.444,796.444,796.444,967.111,796.444,967.111C796.444,1001.244,796.444,1024,762.311,1024C762.311,1024,56.889,1024,56.889,1024C28.444,1024,0,995.556,0,967.111C0,967.111,0,261.689,0,261.689C0,227.556,28.444,227.556,56.889,227.556C56.889,227.556,227.556,227.556,227.556,227.556C227.556,227.556,227.556,56.889,227.556,56.889C227.556,28.444,233.244,0,261.689,0C261.689,0,967.111,0,967.111,0C995.556,0,1024,22.756,1024,56.889C1024,56.889,1024,762.311,1024,762.311C1024,790.756,1001.244,796.444,967.111,796.444C967.111,796.444,967.111,796.444,967.111,796.444M113.778,341.333C113.778,341.333,113.778,910.222,113.778,910.222C113.778,910.222,682.667,910.222,682.667,910.222C682.667,910.222,682.667,796.444,682.667,796.444C682.667,796.444,682.667,682.667,682.667,682.667C682.667,682.667,682.667,341.333,682.667,341.333C682.667,341.333,341.333,341.333,341.333,341.333C341.333,341.333,227.556,341.333,227.556,341.333C227.556,341.333,113.778,341.333,113.778,341.333C113.778,341.333,113.778,341.333,113.778,341.333M910.222,113.778C910.222,113.778,341.333,113.778,341.333,113.778C341.333,113.778,341.333,227.556,341.333,227.556C341.333,227.556,762.311,227.556,762.311,227.556C790.756,227.556,796.444,227.556,796.444,261.689C796.444,261.689,796.444,682.667,796.444,682.667C796.444,682.667,910.222,682.667,910.222,682.667C910.222,682.667,910.222,113.778,910.222,113.778C910.222,113.778,910.222,113.778,910.222,113.778" class="icon-open"/><glyph unicode="&#x0070;" d="M796.667,625.778C796.667,625.778,796.667,910.222,796.667,910.222C796.667,972.8,751.156,1024,688.578,1024C688.578,1024,352.933,1024,352.933,1024C290.356,1024,227.778,972.8,227.778,910.222C227.778,910.222,227.778,625.778,227.778,625.778C165.2,625.778,114,574.578,114,512C114,512,114,113.778,114,113.778C114,51.2,165.2,0,227.778,0C227.778,0,796.667,0,796.667,0C859.244,0,910.444,51.2,910.444,113.778C910.444,113.778,910.444,512,910.444,512C910.444,574.578,859.244,625.778,796.667,625.778C796.667,625.778,796.667,625.778,796.667,625.778M569.111,227.556C569.111,193.422,546.356,170.667,512.222,170.667C478.089,170.667,455.333,193.422,455.333,227.556C455.333,227.556,455.333,398.222,455.333,398.222C455.333,432.356,478.089,455.111,512.222,455.111C546.356,455.111,569.111,432.356,569.111,398.222C569.111,398.222,569.111,227.556,569.111,227.556C569.111,227.556,569.111,227.556,569.111,227.556M682.889,625.778C682.889,625.778,341.556,625.778,341.556,625.778C341.556,625.778,341.556,910.222,341.556,910.222C341.556,910.222,682.889,910.222,682.889,910.222C682.889,910.222,682.889,625.778,682.889,625.778C682.889,625.778,682.889,625.778,682.889,625.778" class="icon-permissions"/><glyph unicode="&#x0071;" d="M197.154,0C197.154,0,118.385,0,118.385,0C98.692,0,79,19.692,79,39.385C79,39.385,79,984.615,79,984.615C79,1008.246,98.692,1024,118.385,1024C118.385,1024,197.154,1024,197.154,1024C197.154,1024,197.154,0,197.154,0C197.154,0,197.154,0,197.154,0M906.077,1024C906.077,1024,275.923,1024,275.923,1024C275.923,1024,275.923,0,275.923,0C275.923,0,906.077,0,906.077,0C925.769,0,945.462,19.692,945.462,39.385C945.462,39.385,945.462,984.615,945.462,984.615C945.462,1004.308,925.769,1024,906.077,1024C906.077,1024,906.077,1024,906.077,1024M748.538,630.154C748.538,606.523,732.785,590.769,709.154,590.769C709.154,590.769,512.231,590.769,512.231,590.769C488.6,590.769,472.846,606.523,472.846,630.154C472.846,630.154,472.846,748.308,472.846,748.308C472.846,771.938,488.6,787.692,512.231,787.692C512.231,787.692,709.154,787.692,709.154,787.692C732.785,787.692,748.538,771.938,748.538,748.308C748.538,748.308,748.538,630.154,748.538,630.154C748.538,630.154,748.538,630.154,748.538,630.154" class="icon-projects"/><glyph unicode="&#x0072;" d="M512,59.5M512,59.5M540.444,59.5C540.444,59.5,540.444,59.5,540.444,59.5C540.444,59.5,483.556,59.5,483.556,59.5C483.556,59.5,483.556,59.5,483.556,59.5C483.556,59.5,540.444,59.5,540.444,59.5M1018.311,594.256C785.067,1089.189,238.933,1089.189,5.689,594.256C5.689,594.256,0,582.878,0,565.811C0,554.433,5.689,543.056,5.689,543.056C238.933,42.433,785.067,42.433,1018.311,543.056C1018.311,543.056,1024,554.433,1024,565.811C1024,582.878,1018.311,594.256,1018.311,594.256C1018.311,594.256,1018.311,594.256,1018.311,594.256M512,292.744C352.711,292.744,227.556,417.9,227.556,577.189C227.556,736.478,352.711,861.633,512,861.633C671.289,861.633,796.444,736.478,796.444,577.189C796.444,417.9,671.289,292.744,512,292.744C512,292.744,512,292.744,512,292.744M512,736.478C415.289,736.478,341.333,662.522,341.333,565.811C341.333,474.789,415.289,395.144,512,395.144C608.711,395.144,682.667,469.1,682.667,565.811C682.667,662.522,608.711,736.478,512,736.478C512,736.478,512,736.478,512,736.478" class="icon-readmore"/><glyph unicode="&#x0073;" d="M497.856,118.807C288.53,118.807,118.807,288.53,118.807,497.856C118.807,707.182,288.53,876.906,497.856,876.906C571.403,876.906,639.293,854.276,701.525,820.331C701.525,820.331,599.691,707.182,599.691,707.182C599.691,707.182,1024,622.32,1024,622.32C1024,622.32,882.564,1024,882.564,1024C882.564,1024,769.414,899.536,769.414,899.536C690.21,956.11,594.033,984.398,492.199,984.398C220.641,984.398,0,763.757,0,492.199C0,220.641,220.641,0,492.199,0C616.663,0,735.47,45.26,825.989,130.122C825.989,130.122,746.785,214.983,746.785,214.983C684.552,152.751,594.033,118.807,497.856,118.807C497.856,118.807,497.856,118.807,497.856,118.807" class="icon-refresh"/><glyph unicode="&#x0074;" d="M1024,512.067C1024,512.067,682.667,785.133,682.667,785.133C682.667,785.133,682.667,648.6,682.667,648.6C68.267,648.6,0,307.267,0,239C136.533,512.067,614.4,375.533,682.667,375.533C682.667,375.533,682.667,239,682.667,239C682.667,239,1024,512.067,1024,512.067C1024,512.067,1024,512.067,1024,512.067" class="icon-reply"/><glyph unicode="&#x0075;" d="M512,0M512,0M540.444,0C540.444,0,540.444,0,540.444,0C540.444,0,483.556,0,483.556,0C483.556,0,483.556,0,483.556,0C483.556,0,540.444,0,540.444,0M494.933,113.778C284.444,113.778,113.778,284.444,113.778,494.933C113.778,705.422,284.444,876.089,494.933,876.089C568.889,876.089,637.156,853.333,699.733,819.2C699.733,819.2,597.333,705.422,597.333,705.422C597.333,705.422,1024,608.711,1024,608.711C1024,608.711,887.467,1024,887.467,1024C887.467,1024,773.689,898.844,773.689,898.844C694.044,955.733,597.333,984.178,494.933,984.178C221.867,984.178,0,762.311,0,494.933C0,221.867,221.867,0,494.933,0C620.089,0,739.556,45.511,830.578,130.844C830.578,130.844,750.933,216.178,750.933,216.178C688.356,147.911,591.644,113.778,494.933,113.778C494.933,113.778,494.933,113.778,494.933,113.778" class="icon-rotate"/><glyph unicode="&#x0076;" d="M509.171,3M509.171,3M537.459,3C537.459,3,537.459,3,537.459,3C537.459,3,480.884,3,480.884,3C480.884,3,480.884,3,480.884,3C480.884,3,537.459,3,537.459,3M859.934,1021.343C859.934,1021.343,809.017,1021.343,809.017,1021.343C809.017,1021.343,678.895,1021.343,678.895,1021.343C678.895,1021.343,611.006,1021.343,611.006,1021.343C520.486,1021.343,452.597,953.453,452.597,862.934C452.597,862.934,452.597,568.746,452.597,568.746C452.597,568.746,226.298,568.746,226.298,568.746C226.298,568.746,509.171,285.873,509.171,285.873C509.171,285.873,792.044,568.746,792.044,568.746C792.044,568.746,565.746,568.746,565.746,568.746C565.746,568.746,565.746,862.934,565.746,862.934C565.746,885.564,588.376,908.193,611.006,908.193C611.006,908.193,678.895,908.193,678.895,908.193C678.895,908.193,814.674,908.193,814.674,908.193C814.674,908.193,865.591,908.193,865.591,908.193C882.564,908.193,905.193,885.564,905.193,862.934C905.193,862.934,905.193,155.751,905.193,155.751C905.193,133.122,882.564,110.492,859.934,110.492C859.934,110.492,158.409,110.492,158.409,110.492C135.779,116.149,113.149,138.779,113.149,161.409C113.149,161.409,113.149,908.193,113.149,908.193C113.149,908.193,0,908.193,0,908.193C0,908.193,0,161.409,0,161.409C0,70.89,67.89,3,158.409,3C158.409,3,865.591,3,865.591,3C950.453,3,1024,70.89,1024,161.409C1024,161.409,1024,862.934,1024,862.934C1018.343,953.453,950.453,1021.343,859.934,1021.343C859.934,1021.343,859.934,1021.343,859.934,1021.343" class="icon-save"/><glyph unicode="&#x0077;" d="M509.171,3M509.171,3M537.459,3C537.459,3,537.459,3,537.459,3C537.459,3,480.884,3,480.884,3C480.884,3,480.884,3,480.884,3C480.884,3,537.459,3,537.459,3M859.934,1021.343C859.934,1021.343,809.017,1021.343,809.017,1021.343C809.017,1021.343,678.895,1021.343,678.895,1021.343C678.895,1021.343,611.006,1021.343,611.006,1021.343C571.403,1021.343,537.459,1004.37,509.171,981.74C480.884,1004.37,446.939,1021.343,407.337,1021.343C407.337,1021.343,282.873,1021.343,282.873,1021.343C282.873,1021.343,282.873,1021.343,282.873,1021.343C282.873,1021.343,158.409,1021.343,158.409,1021.343C67.89,1021.343,0,953.453,0,862.934C0,862.934,0,795.044,0,795.044C0,795.044,0,534.801,0,534.801C0,534.801,0,161.409,0,161.409C0,70.89,67.89,3,158.409,3C158.409,3,865.591,3,865.591,3C950.453,3,1024,70.89,1024,161.409C1024,161.409,1024,862.934,1024,862.934C1018.343,953.453,950.453,1021.343,859.934,1021.343C859.934,1021.343,859.934,1021.343,859.934,1021.343M905.193,161.409C905.193,138.779,882.564,116.149,859.934,116.149C859.934,116.149,158.409,116.149,158.409,116.149C135.779,116.149,113.149,138.779,113.149,161.409C113.149,161.409,113.149,534.801,113.149,534.801C113.149,534.801,113.149,795.044,113.149,795.044C113.149,795.044,113.149,862.934,113.149,862.934C113.149,885.564,135.779,908.193,158.409,908.193C158.409,908.193,282.873,908.193,282.873,908.193C282.873,908.193,282.873,908.193,282.873,908.193C282.873,908.193,407.337,908.193,407.337,908.193C429.967,908.193,452.597,885.564,452.597,862.934C452.597,862.934,452.597,568.746,452.597,568.746C452.597,568.746,226.298,568.746,226.298,568.746C226.298,568.746,509.171,285.873,509.171,285.873C509.171,285.873,792.044,568.746,792.044,568.746C792.044,568.746,565.746,568.746,565.746,568.746C565.746,568.746,565.746,862.934,565.746,862.934C565.746,885.564,588.376,908.193,611.006,908.193C611.006,908.193,678.895,908.193,678.895,908.193C678.895,908.193,814.674,908.193,814.674,908.193C814.674,908.193,865.591,908.193,865.591,908.193C882.564,908.193,905.193,885.564,905.193,862.934C905.193,862.934,905.193,161.409,905.193,161.409C905.193,161.409,905.193,161.409,905.193,161.409" class="icon-saveas"/><glyph unicode="&#x0078;" d="M1024,113.778C1024,113.778,728.178,409.6,728.178,409.6C773.689,472.178,796.444,546.133,796.444,625.778C796.444,847.644,620.089,1024,398.222,1024C176.356,1024,0,847.644,0,625.778C0,403.911,176.356,227.556,398.222,227.556C483.556,227.556,557.511,250.311,620.089,295.822C620.089,295.822,915.911,0,915.911,0C915.911,0,1024,113.778,1024,113.778C1024,113.778,1024,113.778,1024,113.778M113.778,625.778C113.778,785.067,238.933,910.222,398.222,910.222C557.511,910.222,682.667,785.067,682.667,625.778C682.667,466.489,557.511,341.333,398.222,341.333C238.933,341.333,113.778,466.489,113.778,625.778C113.778,625.778,113.778,625.778,113.778,625.778" class="icon-search"/><glyph unicode="&#x0079;" d="M512,0M512,0M540.444,0C540.444,0,540.444,0,540.444,0C540.444,0,483.556,0,483.556,0C483.556,0,483.556,0,483.556,0C483.556,0,540.444,0,540.444,0M1024,568.889C1024,568.889,847.644,568.889,847.644,568.889C824.889,711.111,711.111,824.889,568.889,847.644C568.889,847.644,568.889,1024,568.889,1024C568.889,1024,455.111,1024,455.111,1024C455.111,1024,455.111,847.644,455.111,847.644C312.889,824.889,199.111,711.111,176.356,568.889C176.356,568.889,0,568.889,0,568.889C0,568.889,0,455.111,0,455.111C0,455.111,176.356,455.111,176.356,455.111C199.111,312.889,312.889,199.111,455.111,176.356C455.111,176.356,455.111,0,455.111,0C455.111,0,568.889,0,568.889,0C568.889,0,568.889,176.356,568.889,176.356C711.111,199.111,824.889,312.889,847.644,455.111C847.644,455.111,1024,455.111,1024,455.111C1024,455.111,1024,568.889,1024,568.889C1024,568.889,1024,568.889,1024,568.889M512,284.444C386.844,284.444,284.444,386.844,284.444,512C284.444,637.156,386.844,739.556,512,739.556C637.156,739.556,739.556,637.156,739.556,512C739.556,386.844,637.156,284.444,512,284.444C512,284.444,512,284.444,512,284.444" class="icon-setviewpoint"/><glyph unicode="&#x007a;" d="M512,28.5M512,28.5M540.444,28.5C540.444,28.5,540.444,28.5,540.444,28.5C540.444,28.5,483.556,28.5,483.556,28.5C483.556,28.5,483.556,28.5,483.556,28.5C483.556,28.5,540.444,28.5,540.444,28.5M0,995.611C0,995.611,0,711.167,0,711.167C0,711.167,0,654.278,0,654.278C0,654.278,0,426.722,0,426.722C0,426.722,0,369.833,0,369.833C0,369.833,0,85.389,0,85.389C0,85.389,1024,85.389,1024,85.389C1024,85.389,1024,369.833,1024,369.833C1024,369.833,1024,426.722,1024,426.722C1024,426.722,1024,654.278,1024,654.278C1024,654.278,1024,711.167,1024,711.167C1024,711.167,1024,995.611,1024,995.611C1024,995.611,0,995.611,0,995.611C0,995.611,0,995.611,0,995.611M455.111,426.722C455.111,426.722,455.111,654.278,455.111,654.278C455.111,654.278,682.667,654.278,682.667,654.278C682.667,654.278,682.667,426.722,682.667,426.722C682.667,426.722,455.111,426.722,455.111,426.722C455.111,426.722,455.111,426.722,455.111,426.722M682.667,369.833C682.667,369.833,682.667,142.278,682.667,142.278C682.667,142.278,455.111,142.278,455.111,142.278C455.111,142.278,455.111,369.833,455.111,369.833C455.111,369.833,682.667,369.833,682.667,369.833C682.667,369.833,682.667,369.833,682.667,369.833M455.111,711.167C455.111,711.167,455.111,938.722,455.111,938.722C455.111,938.722,682.667,938.722,682.667,938.722C682.667,938.722,682.667,711.167,682.667,711.167C682.667,711.167,455.111,711.167,455.111,711.167C455.111,711.167,455.111,711.167,455.111,711.167M56.889,938.722C56.889,938.722,398.222,938.722,398.222,938.722C398.222,938.722,398.222,711.167,398.222,711.167C398.222,711.167,56.889,711.167,56.889,711.167C56.889,711.167,56.889,938.722,56.889,938.722C56.889,938.722,56.889,938.722,56.889,938.722M56.889,654.278C56.889,654.278,398.222,654.278,398.222,654.278C398.222,654.278,398.222,426.722,398.222,426.722C398.222,426.722,56.889,426.722,56.889,426.722C56.889,426.722,56.889,654.278,56.889,654.278C56.889,654.278,56.889,654.278,56.889,654.278M56.889,369.833C56.889,369.833,398.222,369.833,398.222,369.833C398.222,369.833,398.222,142.278,398.222,142.278C398.222,142.278,56.889,142.278,56.889,142.278C56.889,142.278,56.889,369.833,56.889,369.833C56.889,369.833,56.889,369.833,56.889,369.833M967.111,142.278C967.111,142.278,739.556,142.278,739.556,142.278C739.556,142.278,739.556,369.833,739.556,369.833C739.556,369.833,967.111,369.833,967.111,369.833C967.111,369.833,967.111,142.278,967.111,142.278C967.111,142.278,967.111,142.278,967.111,142.278M967.111,426.722C967.111,426.722,739.556,426.722,739.556,426.722C739.556,426.722,739.556,654.278,739.556,654.278C739.556,654.278,967.111,654.278,967.111,654.278C967.111,654.278,967.111,426.722,967.111,426.722C967.111,426.722,967.111,426.722,967.111,426.722M739.556,711.167C739.556,711.167,739.556,938.722,739.556,938.722C739.556,938.722,967.111,938.722,967.111,938.722C967.111,938.722,967.111,711.167,967.111,711.167C967.111,711.167,739.556,711.167,739.556,711.167C739.556,711.167,739.556,711.167,739.556,711.167" class="icon-table"/><glyph unicode="&#x0030;" d="M85.333,623C85.333,623,349.867,435.267,349.867,435.267C349.867,435.267,887.467,913.133,887.467,913.133C887.467,913.133,1024,793.667,1024,793.667C1024,793.667,375.467,111,375.467,111C375.467,111,0,537.667,0,537.667C0,537.667,85.333,623,85.333,623" class="icon-tick"/><glyph unicode="&#x0031;" d="M512.256,0M512.256,0M540.7,0C540.7,0,540.7,0,540.7,0C540.7,0,483.811,0,483.811,0C483.811,0,483.811,0,483.811,0C483.811,0,540.7,0,540.7,0M455.367,745.244C455.367,745.244,455.367,512,455.367,512C455.367,512,569.144,512,569.144,512C569.144,512,569.144,745.244,569.144,745.244C569.144,745.244,791.011,745.244,791.011,745.244C791.011,745.244,512.256,1024,512.256,1024C512.256,1024,233.5,745.244,233.5,745.244C233.5,745.244,455.367,745.244,455.367,745.244M637.411,455.111C637.411,455.111,387.1,455.111,387.1,455.111C284.7,455.111,284.7,375.467,284.7,352.711C284.7,352.711,284.7,102.4,284.7,102.4C284.7,79.644,284.7,0,387.1,0C387.1,0,637.411,0,637.411,0C739.811,0,739.811,79.644,739.811,102.4C739.811,102.4,739.811,352.711,739.811,352.711C739.811,375.467,739.811,455.111,637.411,455.111C637.411,455.111,637.411,455.111,637.411,455.111" class="icon-upload"/><glyph unicode="&#x0032;" d="M354.879,866.761C354.879,745.524,486.118,669.726,591.132,730.364C639.879,758.478,669.883,810.493,669.883,866.761C669.883,987.998,538.645,1063.796,433.63,1003.158C384.884,975.044,354.879,923.029,354.879,866.761M748.634,79.251C748.634,35.938,713.197,0.5,669.883,0.5C669.883,0.5,354.879,0.5,354.879,0.5C311.566,0.5,276.128,35.938,276.128,79.251C276.128,79.251,276.128,524.194,276.128,524.194C276.128,567.507,311.566,614.758,350.942,630.508C350.942,630.508,437.568,658.071,437.568,658.071C476.944,673.821,543.882,673.821,587.195,658.071C587.195,658.071,673.821,626.57,673.821,626.57C713.197,610.82,748.634,563.57,748.634,520.257C748.634,520.257,748.634,79.251,748.634,79.251C748.634,79.251,748.634,79.251,748.634,79.251M713.197,748.634C713.197,657.716,811.635,600.858,890.386,646.337C926.927,667.442,949.449,706.424,949.449,748.634C949.449,839.552,851.011,896.411,772.26,850.932C735.719,829.827,713.197,790.845,713.197,748.634M957.325,563.57C957.325,563.57,874.636,591.132,874.636,591.132C847.073,599.008,803.76,602.945,768.322,599.008C780.135,575.382,788.01,551.757,788.01,524.194C788.01,524.194,788.01,79.251,788.01,79.251C788.01,47.751,776.197,20.188,756.51,0.5C756.51,0.5,953.387,0.5,953.387,0.5C992.763,0.5,1024.263,32,1024.263,71.376C1024.263,71.376,1024.263,469.068,1024.263,469.068C1024.263,508.444,992.763,551.757,957.325,563.57C957.325,563.57,957.325,563.57,957.325,563.57M75.313,748.634C75.313,657.716,173.752,600.858,252.503,646.337C289.044,667.442,311.566,706.424,311.566,748.634C311.566,839.552,213.128,896.411,134.377,850.932C97.836,829.827,75.313,790.845,75.313,748.634M67.438,563.57C67.438,563.57,150.127,591.132,150.127,591.132C177.69,599.008,221.003,602.945,256.441,599.008C244.628,575.382,236.753,547.819,236.753,524.194C236.753,524.194,236.753,79.251,236.753,79.251C236.753,47.751,248.566,20.188,268.253,0.5C268.253,0.5,71.376,0.5,71.376,0.5C32,0.5,0.5,32,0.5,71.376C0.5,71.376,0.5,469.068,0.5,469.068C0.5,508.444,32,551.757,67.438,563.57C67.438,563.57,67.438,563.57,67.438,563.57" class="icon-users"/><glyph unicode="&#x0033;" d="M512,1001.489C512,1001.489,637.156,637.4,637.156,637.4C637.156,637.4,1024,626.022,1024,626.022C1024,626.022,716.8,392.778,716.8,392.778C716.8,392.778,830.578,23,830.578,23C830.578,23,512,244.867,512,244.867C512,244.867,193.422,23,193.422,23C193.422,23,307.2,392.778,307.2,392.778C307.2,392.778,0,626.022,0,626.022C0,626.022,386.844,637.4,386.844,637.4C386.844,637.4,512,1001.489,512,1001.489" class="icon-watchlist"/><glyph unicode="&#x0034;" d="M1024.5,597.333C1024.5,597.333,597.833,597.333,597.833,597.333C597.833,597.333,597.833,1024,597.833,1024C597.833,1024,427.167,1024,427.167,1024C427.167,1024,427.167,597.333,427.167,597.333C427.167,597.333,0.5,597.333,0.5,597.333C0.5,597.333,0.5,426.667,0.5,426.667C0.5,426.667,427.167,426.667,427.167,426.667C427.167,426.667,427.167,0,427.167,0C427.167,0,597.833,0,597.833,0C597.833,0,597.833,426.667,597.833,426.667C597.833,426.667,1024.5,426.667,1024.5,426.667C1024.5,426.667,1024.5,597.333,1024.5,597.333" class="icon-zoomin"/><glyph unicode="&#x0035;" d="M0,597.667C0,597.667,1024,597.667,1024,597.667C1024,597.667,1024,427,1024,427C1024,427,0,427,0,427C0,427,0,597.667,0,597.667" class="icon-zoomout copy"/><glyph unicode="&#x0036;" d="M512.444,0M512.444,0M540.889,0C540.889,0,540.889,0,540.889,0C540.889,0,484,0,484,0C484,0,484,0,484,0C484,0,540.889,0,540.889,0M569.333,284.444C569.333,284.444,569.333,512,569.333,512C569.333,512,455.556,512,455.556,512C455.556,512,455.556,284.444,455.556,284.444C455.556,284.444,228,284.444,228,284.444C228,284.444,512.444,0,512.444,0C512.444,0,796.889,284.444,796.889,284.444C796.889,284.444,569.333,284.444,569.333,284.444M387.289,568.889C387.289,568.889,637.6,568.889,637.6,568.889C740,568.889,740,648.533,740,671.289C740,671.289,740,921.6,740,921.6C740,944.356,740,1024,637.6,1024C637.6,1024,387.289,1024,387.289,1024C284.889,1024,284.889,944.356,284.889,921.6C284.889,921.6,284.889,671.289,284.889,671.289C284.889,648.533,284.889,568.889,387.289,568.889C387.289,568.889,387.289,568.889,387.289,568.889" class="icon-export"/><glyph unicode="&#x0037;" d="M512,0M512,0M540.444,0C540.444,0,540.444,0,540.444,0C540.444,0,483.556,0,483.556,0C483.556,0,483.556,0,483.556,0C483.556,0,540.444,0,540.444,0M0,455.111C0,455.111,0,113.778,0,113.778C0,113.778,221.867,0,221.867,0C221.867,0,625.778,170.667,625.778,170.667C625.778,170.667,967.111,170.667,967.111,170.667C967.111,170.667,1024,512,1024,512C1024,512,847.644,1024,847.644,1024C847.644,1024,398.222,796.444,398.222,796.444C398.222,796.444,113.778,853.333,113.778,853.333C113.778,853.333,113.778,568.889,113.778,568.889C113.778,568.889,0,455.111,0,455.111" class="icon-shapelayer"/><glyph unicode="&#x0038;" d="M512,28.5M512,28.5M540.444,28.5C540.444,28.5,540.444,28.5,540.444,28.5C540.444,28.5,483.556,28.5,483.556,28.5C483.556,28.5,483.556,28.5,483.556,28.5C483.556,28.5,540.444,28.5,540.444,28.5M1024,711.167C1024,711.167,739.556,995.611,739.556,995.611C739.556,995.611,739.556,768.056,739.556,768.056C739.556,768.056,398.222,768.056,398.222,768.056C398.222,768.056,398.222,654.278,398.222,654.278C398.222,654.278,739.556,654.278,739.556,654.278C739.556,654.278,739.556,426.722,739.556,426.722C739.556,426.722,1024,711.167,1024,711.167M284.444,654.278C284.444,654.278,0,369.833,0,369.833C0,369.833,284.444,85.389,284.444,85.389C284.444,85.389,284.444,312.944,284.444,312.944C284.444,312.944,625.778,312.944,625.778,312.944C625.778,312.944,625.778,426.722,625.778,426.722C625.778,426.722,284.444,426.722,284.444,426.722C284.444,426.722,284.444,654.278,284.444,654.278" class="icon-move"/><glyph unicode="&#x0039;" d="M512,11.5M512,11.5M540.444,11.5C540.444,11.5,540.444,11.5,540.444,11.5C540.444,11.5,483.556,11.5,483.556,11.5C483.556,11.5,483.556,11.5,483.556,11.5C483.556,11.5,540.444,11.5,540.444,11.5M512,802.256C512,802.256,574.578,625.9,574.578,625.9C574.578,625.9,591.644,580.389,591.644,580.389C591.644,580.389,637.156,580.389,637.156,580.389C637.156,580.389,824.889,574.7,824.889,574.7C824.889,574.7,676.978,460.922,676.978,460.922C676.978,460.922,637.156,432.478,637.156,432.478C637.156,432.478,648.533,386.967,648.533,386.967C648.533,386.967,705.422,204.922,705.422,204.922C705.422,204.922,551.822,313.011,551.822,313.011C551.822,313.011,512,341.456,512,341.456C512,341.456,472.178,313.011,472.178,313.011C472.178,313.011,318.578,204.922,318.578,204.922C318.578,204.922,375.467,386.967,375.467,386.967C375.467,386.967,386.844,432.478,386.844,432.478C386.844,432.478,347.022,460.922,347.022,460.922C347.022,460.922,199.111,574.7,199.111,574.7C199.111,574.7,386.844,580.389,386.844,580.389C386.844,580.389,432.356,580.389,432.356,580.389C432.356,580.389,449.422,625.9,449.422,625.9C449.422,625.9,512,802.256,512,802.256M512,1012.744C512,1012.744,386.844,648.656,386.844,648.656C386.844,648.656,0,637.278,0,637.278C0,637.278,307.2,404.033,307.2,404.033C307.2,404.033,193.422,34.256,193.422,34.256C193.422,34.256,512,256.122,512,256.122C512,256.122,830.578,34.256,830.578,34.256C830.578,34.256,716.8,404.033,716.8,404.033C716.8,404.033,1024,637.278,1024,637.278C1024,637.278,637.156,642.967,637.156,642.967C637.156,642.967,512,1012.744,512,1012.744C512,1012.744,512,1012.744,512,1012.744C512,1012.744,512,1012.744,512,1012.744" class="icon-unwatch"/><glyph unicode="&#x0021;" d="M0,682.778C0,682.778,170.667,57,170.667,57C170.667,57,853.333,57,853.333,57C853.333,57,1024,682.778,1024,682.778C1024,682.778,0,682.778,0,682.778M853.333,910.333C853.333,910.333,796.444,910.333,796.444,910.333C796.444,910.333,768,967.222,768,967.222C768,967.222,540.444,967.222,540.444,967.222C540.444,967.222,512,910.333,512,910.333C512,910.333,170.667,910.333,170.667,910.333C170.667,910.333,170.667,739.667,170.667,739.667C170.667,739.667,853.333,739.667,853.333,739.667C853.333,739.667,853.333,910.333,853.333,910.333" class="icon-assetcategory"/></font>
</defs>
</svg>
